<svg xmlns="http://www.w3.org/2000/svg" xmlns:xlink="http://www.w3.org/1999/xlink" width="1322" zoomAndPan="magnify" viewBox="0 0 991.5 325.499995" height="434" preserveAspectRatio="xMidYMid meet" version="1.0"><defs><filter x="0%" y="0%" width="100%" height="100%" id="77e5ad1695"><feColorMatrix values="0 0 0 0 1 0 0 0 0 1 0 0 0 0 1 0 0 0 1 0" color-interpolation-filters="sRGB"/></filter><g/><clipPath id="f4d1299a06"><path d="M 0.511719 0 L 990.488281 0 L 990.488281 325 L 0.511719 325 Z M 0.511719 0 " clip-rule="nonzero"/></clipPath><clipPath id="209299fe4e"><path d="M 381 0 L 990.488281 0 L 990.488281 325 L 381 325 Z M 381 0 " clip-rule="nonzero"/></clipPath><clipPath id="a658d52262"><path d="M 1.558594 0 L 609.488281 0 L 609.488281 325 L 1.558594 325 Z M 1.558594 0 " clip-rule="nonzero"/></clipPath><clipPath id="910d58b1ad"><path d="M 0.558594 0 L 608.488281 0 L 608.488281 325 L 0.558594 325 Z M 0.558594 0 " clip-rule="nonzero"/></clipPath><clipPath id="98dd32257a"><path d="M 0.558594 0 L 608.488281 0 L 608.488281 325 L 0.558594 325 Z M 0.558594 0 " clip-rule="nonzero"/></clipPath><linearGradient x1="-285.04599" gradientTransform="matrix(0.857546, 0, 0, 0.857086, 244.999648, 94.483384)" y1="101" x2="423.872929" gradientUnits="userSpaceOnUse" y2="101" id="8bb4b10a02"><stop stop-opacity="1" stop-color="rgb(81.568909%, 83.529663%, 100%)" offset="0"/><stop stop-opacity="1" stop-color="rgb(81.568909%, 83.529663%, 100%)" offset="0.25"/><stop stop-opacity="1" stop-color="rgb(81.568909%, 83.529663%, 100%)" offset="0.375"/><stop stop-opacity="1" stop-color="rgb(81.613159%, 83.566284%, 99.971008%)" offset="0.40625"/><stop stop-opacity="1" stop-color="rgb(81.828308%, 83.743286%, 99.838257%)" offset="0.421875"/><stop stop-opacity="1" stop-color="rgb(82.165527%, 84.022522%, 99.627686%)" offset="0.4375"/><stop stop-opacity="1" stop-color="rgb(82.504272%, 84.303284%, 99.41864%)" offset="0.453125"/><stop stop-opacity="1" stop-color="rgb(82.843018%, 84.58252%, 99.208069%)" offset="0.46875"/><stop stop-opacity="1" stop-color="rgb(83.180237%, 84.861755%, 98.999023%)" offset="0.484375"/><stop stop-opacity="1" stop-color="rgb(83.518982%, 85.142517%, 98.788452%)" offset="0.5"/><stop stop-opacity="1" stop-color="rgb(83.856201%, 85.421753%, 98.577881%)" offset="0.515625"/><stop stop-opacity="1" stop-color="rgb(84.194946%, 85.702515%, 98.368835%)" offset="0.53125"/><stop stop-opacity="1" stop-color="rgb(84.532166%, 85.98175%, 98.158264%)" offset="0.546875"/><stop stop-opacity="1" stop-color="rgb(84.870911%, 86.260986%, 97.949219%)" offset="0.5625"/><stop stop-opacity="1" stop-color="rgb(85.209656%, 86.541748%, 97.738647%)" offset="0.578125"/><stop stop-opacity="1" stop-color="rgb(85.546875%, 86.820984%, 97.528076%)" offset="0.59375"/><stop stop-opacity="1" stop-color="rgb(85.88562%, 87.10022%, 97.319031%)" offset="0.609375"/><stop stop-opacity="1" stop-color="rgb(86.222839%, 87.380981%, 97.108459%)" offset="0.625"/><stop stop-opacity="1" stop-color="rgb(86.561584%, 87.660217%, 96.899414%)" offset="0.640625"/><stop stop-opacity="1" stop-color="rgb(86.898804%, 87.940979%, 96.688843%)" offset="0.65625"/><stop stop-opacity="1" stop-color="rgb(87.237549%, 88.220215%, 96.479797%)" offset="0.671875"/><stop stop-opacity="1" stop-color="rgb(87.576294%, 88.499451%, 96.269226%)" offset="0.6875"/><stop stop-opacity="1" stop-color="rgb(87.913513%, 88.780212%, 96.058655%)" offset="0.703125"/><stop stop-opacity="1" stop-color="rgb(88.252258%, 89.059448%, 95.849609%)" offset="0.71875"/><stop stop-opacity="1" stop-color="rgb(88.589478%, 89.338684%, 95.639038%)" offset="0.734375"/><stop stop-opacity="1" stop-color="rgb(88.928223%, 89.619446%, 95.429993%)" offset="0.75"/><stop stop-opacity="1" stop-color="rgb(89.265442%, 89.898682%, 95.219421%)" offset="0.765625"/><stop stop-opacity="1" stop-color="rgb(89.604187%, 90.179443%, 95.00885%)" offset="0.78125"/><stop stop-opacity="1" stop-color="rgb(89.942932%, 90.458679%, 94.799805%)" offset="0.796875"/><stop stop-opacity="1" stop-color="rgb(90.280151%, 90.737915%, 94.589233%)" offset="0.8125"/><stop stop-opacity="1" stop-color="rgb(90.618896%, 91.018677%, 94.380188%)" offset="0.828125"/><stop stop-opacity="1" stop-color="rgb(90.956116%, 91.297913%, 94.169617%)" offset="0.84375"/><stop stop-opacity="1" stop-color="rgb(91.294861%, 91.577148%, 93.960571%)" offset="0.859375"/><stop stop-opacity="1" stop-color="rgb(91.63208%, 91.85791%, 93.75%)" offset="0.875"/><stop stop-opacity="1" stop-color="rgb(91.970825%, 92.137146%, 93.539429%)" offset="0.890625"/><stop stop-opacity="1" stop-color="rgb(92.30957%, 92.417908%, 93.330383%)" offset="0.90625"/><stop stop-opacity="1" stop-color="rgb(92.64679%, 92.697144%, 93.119812%)" offset="0.921875"/><stop stop-opacity="1" stop-color="rgb(92.877197%, 92.887878%, 92.977905%)" offset="0.9375"/><stop stop-opacity="1" stop-color="rgb(92.939758%, 92.939758%, 92.939758%)" offset="1"/></linearGradient><clipPath id="8deba97026"><rect x="0" width="609" y="0" height="325"/></clipPath><clipPath id="4bc61e29f9"><path d="M 0.558594 0 L 608.488281 0 L 608.488281 325 L 0.558594 325 Z M 0.558594 0 " clip-rule="nonzero"/></clipPath><clipPath id="ebf3ec0f3d"><rect x="0" width="609" y="0" height="325"/></clipPath><clipPath id="639b1381f9"><rect x="0" width="609" y="0" height="325"/></clipPath><mask id="73e99fdf17"><g filter="url(#77e5ad1695)"><g transform="matrix(1, 0, 0, 1, -0.000000000000056843, 0)"><g clip-path="url(#639b1381f9)"><g clip-path="url(#4bc61e29f9)"><g transform="matrix(1, 0, 0, 1, -0.000000000000056843, 0)"><g clip-path="url(#ebf3ec0f3d)"><g fill="#000000" fill-opacity="1"><g transform="translate(244.858012, 218.765523)"><g><path d="M 71.46875 -91.625 L 81.25 -91.625 L 81.25 0 L 71.46875 0 L 71.46875 -40.921875 L 20.921875 -40.921875 L 20.921875 0 L 11.140625 0 L 11.140625 -91.625 L 20.921875 -91.625 L 20.921875 -50.703125 L 71.46875 -50.703125 Z M 71.46875 -91.625 "/></g></g></g><g fill="#000000" fill-opacity="1"><g transform="translate(356.180202, 218.765523)"><g><path d="M 45.046875 1.21875 C 38.429688 1.21875 32.523438 -0.128906 27.328125 -2.828125 C 22.140625 -5.523438 18.066406 -9.238281 15.109375 -13.96875 C 12.160156 -18.707031 10.6875 -24.078125 10.6875 -30.078125 L 10.6875 -91.625 L 20.46875 -91.625 L 20.46875 -31.609375 C 20.46875 -27.234375 21.535156 -23.289062 23.671875 -19.78125 C 25.804688 -16.269531 28.734375 -13.519531 32.453125 -11.53125 C 36.171875 -9.539062 40.367188 -8.546875 45.046875 -8.546875 C 49.835938 -8.546875 54.085938 -9.539062 57.796875 -11.53125 C 61.515625 -13.519531 64.441406 -16.269531 66.578125 -19.78125 C 68.722656 -23.289062 69.796875 -27.234375 69.796875 -31.609375 L 69.796875 -91.625 L 79.5625 -91.625 L 79.5625 -30.078125 C 79.5625 -24.078125 78.082031 -18.707031 75.125 -13.96875 C 72.175781 -9.238281 68.101562 -5.523438 62.90625 -2.828125 C 57.71875 -0.128906 51.765625 1.21875 45.046875 1.21875 Z M 45.046875 1.21875 "/></g></g></g><g fill="#000000" fill-opacity="1"><g transform="translate(465.364539, 218.765523)"><g><path d="M 56.359375 -46.421875 C 61.140625 -44.796875 65.054688 -42.070312 68.109375 -38.25 C 71.160156 -34.4375 72.6875 -29.726562 72.6875 -24.125 C 72.6875 -19.445312 71.566406 -15.273438 69.328125 -11.609375 C 67.085938 -7.941406 64.082031 -5.085938 60.3125 -3.046875 C 56.550781 -1.015625 52.328125 0 47.640625 0 L 11.140625 0 L 11.140625 -91.625 L 44.4375 -91.625 C 49.125 -91.625 53.375 -90.582031 57.1875 -88.5 C 61.007812 -86.414062 64.066406 -83.539062 66.359375 -79.875 C 68.648438 -76.207031 69.796875 -71.976562 69.796875 -67.1875 C 69.796875 -62.300781 68.570312 -58.078125 66.125 -54.515625 C 63.675781 -50.953125 60.421875 -48.253906 56.359375 -46.421875 Z M 60.015625 -66.4375 C 60.015625 -70.914062 58.382812 -74.601562 55.125 -77.5 C 51.875 -80.40625 47.957031 -81.859375 43.375 -81.859375 L 20.765625 -81.859375 L 20.765625 -50.546875 L 43.375 -50.546875 C 47.957031 -50.546875 51.875 -52.070312 55.125 -55.125 C 58.382812 -58.1875 60.015625 -61.957031 60.015625 -66.4375 Z M 46.421875 -9.78125 C 50.898438 -9.78125 54.769531 -11.226562 58.03125 -14.125 C 61.289062 -17.03125 62.921875 -20.722656 62.921875 -25.203125 C 62.921875 -29.679688 61.289062 -33.445312 58.03125 -36.5 C 54.769531 -39.550781 50.898438 -41.078125 46.421875 -41.078125 L 20.765625 -41.078125 L 20.765625 -9.78125 Z M 46.421875 -9.78125 "/></g></g></g></g></g></g></g></g></g></mask><clipPath id="b7802ecc69"><path d="M 0.558594 0 L 608.488281 0 L 608.488281 325 L 0.558594 325 Z M 0.558594 0 " clip-rule="nonzero"/></clipPath><clipPath id="52e9904466"><rect x="0" width="609" y="0" height="325"/></clipPath><clipPath id="41ee5d6519"><rect x="0" width="609" y="0" height="325"/></clipPath><clipPath id="b8c20e9949"><rect x="0" width="610" y="0" height="325"/></clipPath><clipPath id="572189b5e2"><path d="M 0.511719 0 L 946 0 L 946 325 L 0.511719 325 Z M 0.511719 0 " clip-rule="nonzero"/></clipPath><clipPath id="7778fb1349"><path d="M 0.511719 0 L 945.832031 0 L 945.832031 325 L 0.511719 325 Z M 0.511719 0 " clip-rule="nonzero"/></clipPath><clipPath id="212f0ff23e"><path d="M 0.511719 0 L 945.832031 0 L 945.832031 325 L 0.511719 325 Z M 0.511719 0 " clip-rule="nonzero"/></clipPath><clipPath id="b0554f51dd"><path d="M 0.511719 0 L 944.816406 0 L 944.816406 325 L 0.511719 325 Z M 0.511719 0 " clip-rule="nonzero"/></clipPath><linearGradient x1="-53.124047" gradientTransform="matrix(1.016551, 0, 0, 1.016493, 54.514037, 36.680674)" y1="123" x2="875.806645" gradientUnits="userSpaceOnUse" y2="123" id="99e34544ef"><stop stop-opacity="1" stop-color="rgb(90.19928%, 90.19928%, 90.19928%)" offset="0"/><stop stop-opacity="1" stop-color="rgb(90.19928%, 90.19928%, 90.19928%)" offset="0.03125"/><stop stop-opacity="1" stop-color="rgb(90.19928%, 90.19928%, 90.19928%)" offset="0.046875"/><stop stop-opacity="1" stop-color="rgb(90.19928%, 90.19928%, 90.19928%)" offset="0.0546875"/><stop stop-opacity="1" stop-color="rgb(89.537048%, 90.106201%, 89.628601%)" offset="0.0585937"/><stop stop-opacity="1" stop-color="rgb(88.874817%, 90.014648%, 89.059448%)" offset="0.0625"/><stop stop-opacity="1" stop-color="rgb(87.89978%, 89.877319%, 88.221741%)" offset="0.0664062"/><stop stop-opacity="1" stop-color="rgb(86.92627%, 89.741516%, 87.384033%)" offset="0.0703125"/><stop stop-opacity="1" stop-color="rgb(85.952759%, 89.605713%, 86.546326%)" offset="0.0742188"/><stop stop-opacity="1" stop-color="rgb(84.979248%, 89.46991%, 85.708618%)" offset="0.078125"/><stop stop-opacity="1" stop-color="rgb(84.004211%, 89.334106%, 84.869385%)" offset="0.0820312"/><stop stop-opacity="1" stop-color="rgb(83.030701%, 89.198303%, 84.031677%)" offset="0.0859375"/><stop stop-opacity="1" stop-color="rgb(82.05719%, 89.060974%, 83.19397%)" offset="0.0898438"/><stop stop-opacity="1" stop-color="rgb(81.083679%, 88.925171%, 82.356262%)" offset="0.09375"/><stop stop-opacity="1" stop-color="rgb(80.108643%, 88.789368%, 81.517029%)" offset="0.0976562"/><stop stop-opacity="1" stop-color="rgb(79.135132%, 88.653564%, 80.679321%)" offset="0.101562"/><stop stop-opacity="1" stop-color="rgb(78.161621%, 88.516235%, 79.841614%)" offset="0.105469"/><stop stop-opacity="1" stop-color="rgb(77.18811%, 88.380432%, 79.003906%)" offset="0.109375"/><stop stop-opacity="1" stop-color="rgb(76.213074%, 88.244629%, 78.166199%)" offset="0.113281"/><stop stop-opacity="1" stop-color="rgb(75.239563%, 88.108826%, 77.328491%)" offset="0.117187"/><stop stop-opacity="1" stop-color="rgb(74.266052%, 87.973022%, 76.489258%)" offset="0.121094"/><stop stop-opacity="1" stop-color="rgb(73.292542%, 87.837219%, 75.65155%)" offset="0.125"/><stop stop-opacity="1" stop-color="rgb(72.317505%, 87.69989%, 74.813843%)" offset="0.128906"/><stop stop-opacity="1" stop-color="rgb(71.343994%, 87.564087%, 73.976135%)" offset="0.132812"/><stop stop-opacity="1" stop-color="rgb(70.368958%, 87.428284%, 73.138428%)" offset="0.136719"/><stop stop-opacity="1" stop-color="rgb(69.395447%, 87.29248%, 72.30072%)" offset="0.140625"/><stop stop-opacity="1" stop-color="rgb(68.421936%, 87.155151%, 71.461487%)" offset="0.144531"/><stop stop-opacity="1" stop-color="rgb(67.448425%, 87.019348%, 70.623779%)" offset="0.148438"/><stop stop-opacity="1" stop-color="rgb(66.473389%, 86.883545%, 69.786072%)" offset="0.152344"/><stop stop-opacity="1" stop-color="rgb(65.499878%, 86.747742%, 68.948364%)" offset="0.15625"/><stop stop-opacity="1" stop-color="rgb(64.526367%, 86.611938%, 68.110657%)" offset="0.160156"/><stop stop-opacity="1" stop-color="rgb(63.552856%, 86.476135%, 67.272949%)" offset="0.164062"/><stop stop-opacity="1" stop-color="rgb(62.57782%, 86.338806%, 66.433716%)" offset="0.167969"/><stop stop-opacity="1" stop-color="rgb(61.604309%, 86.203003%, 65.596008%)" offset="0.171875"/><stop stop-opacity="1" stop-color="rgb(60.630798%, 86.0672%, 64.758301%)" offset="0.175781"/><stop stop-opacity="1" stop-color="rgb(59.657288%, 85.931396%, 63.920593%)" offset="0.179688"/><stop stop-opacity="1" stop-color="rgb(58.682251%, 85.794067%, 63.082886%)" offset="0.183594"/><stop stop-opacity="1" stop-color="rgb(57.70874%, 85.658264%, 62.245178%)" offset="0.1875"/><stop stop-opacity="1" stop-color="rgb(56.735229%, 85.522461%, 61.405945%)" offset="0.191406"/><stop stop-opacity="1" stop-color="rgb(55.761719%, 85.386658%, 60.568237%)" offset="0.195312"/><stop stop-opacity="1" stop-color="rgb(54.786682%, 85.250854%, 59.73053%)" offset="0.199219"/><stop stop-opacity="1" stop-color="rgb(53.813171%, 85.115051%, 58.892822%)" offset="0.203125"/><stop stop-opacity="1" stop-color="rgb(52.838135%, 84.977722%, 58.055115%)" offset="0.207031"/><stop stop-opacity="1" stop-color="rgb(51.864624%, 84.841919%, 57.217407%)" offset="0.210938"/><stop stop-opacity="1" stop-color="rgb(50.891113%, 84.706116%, 56.378174%)" offset="0.214844"/><stop stop-opacity="1" stop-color="rgb(49.917603%, 84.570312%, 55.540466%)" offset="0.21875"/><stop stop-opacity="1" stop-color="rgb(48.942566%, 84.432983%, 54.702759%)" offset="0.222656"/><stop stop-opacity="1" stop-color="rgb(47.969055%, 84.29718%, 53.865051%)" offset="0.226562"/><stop stop-opacity="1" stop-color="rgb(46.995544%, 84.161377%, 53.027344%)" offset="0.230469"/><stop stop-opacity="1" stop-color="rgb(46.022034%, 84.025574%, 52.189636%)" offset="0.234375"/><stop stop-opacity="1" stop-color="rgb(45.046997%, 83.889771%, 51.350403%)" offset="0.238281"/><stop stop-opacity="1" stop-color="rgb(44.073486%, 83.753967%, 50.512695%)" offset="0.242187"/><stop stop-opacity="1" stop-color="rgb(43.099976%, 83.616638%, 49.674988%)" offset="0.246094"/><stop stop-opacity="1" stop-color="rgb(42.126465%, 83.480835%, 48.83728%)" offset="0.25"/><stop stop-opacity="1" stop-color="rgb(41.151428%, 83.345032%, 47.998047%)" offset="0.253906"/><stop stop-opacity="1" stop-color="rgb(40.177917%, 83.209229%, 47.160339%)" offset="0.257812"/><stop stop-opacity="1" stop-color="rgb(39.204407%, 83.073425%, 46.322632%)" offset="0.261719"/><stop stop-opacity="1" stop-color="rgb(38.230896%, 82.937622%, 45.484924%)" offset="0.265625"/><stop stop-opacity="1" stop-color="rgb(37.255859%, 82.800293%, 44.647217%)" offset="0.269531"/><stop stop-opacity="1" stop-color="rgb(36.282349%, 82.66449%, 43.809509%)" offset="0.273437"/><stop stop-opacity="1" stop-color="rgb(35.307312%, 82.528687%, 42.970276%)" offset="0.277344"/><stop stop-opacity="1" stop-color="rgb(34.333801%, 82.392883%, 42.132568%)" offset="0.28125"/><stop stop-opacity="1" stop-color="rgb(33.360291%, 82.255554%, 41.294861%)" offset="0.285156"/><stop stop-opacity="1" stop-color="rgb(32.38678%, 82.119751%, 40.457153%)" offset="0.289062"/><stop stop-opacity="1" stop-color="rgb(31.411743%, 81.983948%, 39.619446%)" offset="0.292969"/><stop stop-opacity="1" stop-color="rgb(30.438232%, 81.848145%, 38.781738%)" offset="0.296875"/><stop stop-opacity="1" stop-color="rgb(29.464722%, 81.712341%, 37.942505%)" offset="0.300781"/><stop stop-opacity="1" stop-color="rgb(28.491211%, 81.576538%, 37.104797%)" offset="0.304688"/><stop stop-opacity="1" stop-color="rgb(27.516174%, 81.439209%, 36.26709%)" offset="0.308594"/><stop stop-opacity="1" stop-color="rgb(26.542664%, 81.303406%, 35.429382%)" offset="0.3125"/><stop stop-opacity="1" stop-color="rgb(25.569153%, 81.167603%, 34.591675%)" offset="0.316406"/><stop stop-opacity="1" stop-color="rgb(24.595642%, 81.031799%, 33.753967%)" offset="0.320312"/><stop stop-opacity="1" stop-color="rgb(23.620605%, 80.89447%, 32.914734%)" offset="0.324219"/><stop stop-opacity="1" stop-color="rgb(22.647095%, 80.758667%, 32.077026%)" offset="0.328125"/><stop stop-opacity="1" stop-color="rgb(21.673584%, 80.622864%, 31.239319%)" offset="0.332031"/><stop stop-opacity="1" stop-color="rgb(20.700073%, 80.487061%, 30.401611%)" offset="0.335938"/><stop stop-opacity="1" stop-color="rgb(20.343018%, 79.88739%, 30.661011%)" offset="0.339844"/><stop stop-opacity="1" stop-color="rgb(19.985962%, 79.28772%, 30.921936%)" offset="0.34375"/><stop stop-opacity="1" stop-color="rgb(19.973755%, 78.427124%, 31.797791%)" offset="0.347656"/><stop stop-opacity="1" stop-color="rgb(19.963074%, 77.568054%, 32.673645%)" offset="0.351562"/><stop stop-opacity="1" stop-color="rgb(19.952393%, 76.708984%, 33.5495%)" offset="0.355469"/><stop stop-opacity="1" stop-color="rgb(19.941711%, 75.849915%, 34.425354%)" offset="0.359375"/><stop stop-opacity="1" stop-color="rgb(19.93103%, 74.989319%, 35.301208%)" offset="0.363281"/><stop stop-opacity="1" stop-color="rgb(19.920349%, 74.130249%, 36.177063%)" offset="0.367188"/><stop stop-opacity="1" stop-color="rgb(19.909668%, 73.269653%, 37.052917%)" offset="0.371094"/><stop stop-opacity="1" stop-color="rgb(19.898987%, 72.410583%, 37.928772%)" offset="0.375"/><stop stop-opacity="1" stop-color="rgb(19.888306%, 71.551514%, 38.804626%)" offset="0.378906"/><stop stop-opacity="1" stop-color="rgb(19.877625%, 70.692444%, 39.682007%)" offset="0.382812"/><stop stop-opacity="1" stop-color="rgb(19.866943%, 69.831848%, 40.557861%)" offset="0.386719"/><stop stop-opacity="1" stop-color="rgb(19.856262%, 68.972778%, 41.433716%)" offset="0.390625"/><stop stop-opacity="1" stop-color="rgb(19.844055%, 68.112183%, 42.30957%)" offset="0.394531"/><stop stop-opacity="1" stop-color="rgb(19.833374%, 67.253113%, 43.185425%)" offset="0.398437"/><stop stop-opacity="1" stop-color="rgb(19.822693%, 66.392517%, 44.061279%)" offset="0.402344"/><stop stop-opacity="1" stop-color="rgb(19.812012%, 65.533447%, 44.937134%)" offset="0.40625"/><stop stop-opacity="1" stop-color="rgb(19.801331%, 64.674377%, 45.812988%)" offset="0.410156"/><stop stop-opacity="1" stop-color="rgb(19.790649%, 63.815308%, 46.688843%)" offset="0.414062"/><stop stop-opacity="1" stop-color="rgb(19.779968%, 62.954712%, 47.564697%)" offset="0.417969"/><stop stop-opacity="1" stop-color="rgb(19.769287%, 62.095642%, 48.440552%)" offset="0.421875"/><stop stop-opacity="1" stop-color="rgb(19.758606%, 61.235046%, 49.316406%)" offset="0.425781"/><stop stop-opacity="1" stop-color="rgb(19.747925%, 60.375977%, 50.193787%)" offset="0.429687"/><stop stop-opacity="1" stop-color="rgb(19.735718%, 59.516907%, 51.069641%)" offset="0.433594"/><stop stop-opacity="1" stop-color="rgb(19.725037%, 58.657837%, 51.945496%)" offset="0.4375"/><stop stop-opacity="1" stop-color="rgb(19.714355%, 57.797241%, 52.82135%)" offset="0.441406"/><stop stop-opacity="1" stop-color="rgb(19.703674%, 56.938171%, 53.697205%)" offset="0.445312"/><stop stop-opacity="1" stop-color="rgb(19.692993%, 56.077576%, 54.573059%)" offset="0.449219"/><stop stop-opacity="1" stop-color="rgb(19.682312%, 55.218506%, 55.448914%)" offset="0.453125"/><stop stop-opacity="1" stop-color="rgb(19.671631%, 54.35791%, 56.324768%)" offset="0.457031"/><stop stop-opacity="1" stop-color="rgb(19.66095%, 53.49884%, 57.200623%)" offset="0.460938"/><stop stop-opacity="1" stop-color="rgb(19.650269%, 52.639771%, 58.076477%)" offset="0.464844"/><stop stop-opacity="1" stop-color="rgb(19.639587%, 51.780701%, 58.953857%)" offset="0.46875"/><stop stop-opacity="1" stop-color="rgb(19.62738%, 50.920105%, 59.829712%)" offset="0.472656"/><stop stop-opacity="1" stop-color="rgb(19.616699%, 50.061035%, 60.705566%)" offset="0.476562"/><stop stop-opacity="1" stop-color="rgb(19.606018%, 49.200439%, 61.581421%)" offset="0.480469"/><stop stop-opacity="1" stop-color="rgb(19.595337%, 48.34137%, 62.457275%)" offset="0.484375"/><stop stop-opacity="1" stop-color="rgb(19.584656%, 47.4823%, 63.33313%)" offset="0.488281"/><stop stop-opacity="1" stop-color="rgb(19.573975%, 46.62323%, 64.208984%)" offset="0.492187"/><stop stop-opacity="1" stop-color="rgb(19.563293%, 45.762634%, 65.084839%)" offset="0.496094"/><stop stop-opacity="1" stop-color="rgb(19.552612%, 44.903564%, 65.960693%)" offset="0.5"/><stop stop-opacity="1" stop-color="rgb(19.541931%, 44.042969%, 66.836548%)" offset="0.503906"/><stop stop-opacity="1" stop-color="rgb(19.53125%, 43.183899%, 67.712402%)" offset="0.507812"/><stop stop-opacity="1" stop-color="rgb(19.520569%, 42.323303%, 68.588257%)" offset="0.511719"/><stop stop-opacity="1" stop-color="rgb(19.509888%, 41.464233%, 69.465637%)" offset="0.515625"/><stop stop-opacity="1" stop-color="rgb(19.497681%, 40.605164%, 70.341492%)" offset="0.519531"/><stop stop-opacity="1" stop-color="rgb(19.487%, 39.746094%, 71.217346%)" offset="0.523437"/><stop stop-opacity="1" stop-color="rgb(19.476318%, 38.885498%, 72.093201%)" offset="0.527344"/><stop stop-opacity="1" stop-color="rgb(19.465637%, 38.026428%, 72.969055%)" offset="0.53125"/><stop stop-opacity="1" stop-color="rgb(19.454956%, 37.165833%, 73.84491%)" offset="0.535156"/><stop stop-opacity="1" stop-color="rgb(19.444275%, 36.306763%, 74.720764%)" offset="0.539062"/><stop stop-opacity="1" stop-color="rgb(19.433594%, 35.446167%, 75.596619%)" offset="0.542969"/><stop stop-opacity="1" stop-color="rgb(19.422913%, 34.587097%, 76.472473%)" offset="0.546875"/><stop stop-opacity="1" stop-color="rgb(19.412231%, 33.728027%, 77.348328%)" offset="0.550781"/><stop stop-opacity="1" stop-color="rgb(19.40155%, 32.868958%, 78.224182%)" offset="0.554687"/><stop stop-opacity="1" stop-color="rgb(19.389343%, 32.008362%, 79.100037%)" offset="0.558594"/><stop stop-opacity="1" stop-color="rgb(19.378662%, 31.149292%, 79.977417%)" offset="0.5625"/><stop stop-opacity="1" stop-color="rgb(19.367981%, 30.288696%, 80.853271%)" offset="0.566406"/><stop stop-opacity="1" stop-color="rgb(19.3573%, 29.429626%, 81.729126%)" offset="0.570312"/><stop stop-opacity="1" stop-color="rgb(19.346619%, 28.570557%, 82.60498%)" offset="0.574219"/><stop stop-opacity="1" stop-color="rgb(19.335938%, 27.711487%, 83.480835%)" offset="0.578125"/><stop stop-opacity="1" stop-color="rgb(19.325256%, 26.850891%, 84.356689%)" offset="0.582031"/><stop stop-opacity="1" stop-color="rgb(19.314575%, 25.991821%, 85.232544%)" offset="0.585938"/><stop stop-opacity="1" stop-color="rgb(19.303894%, 25.131226%, 86.108398%)" offset="0.589844"/><stop stop-opacity="1" stop-color="rgb(19.293213%, 24.272156%, 86.984253%)" offset="0.59375"/><stop stop-opacity="1" stop-color="rgb(19.282532%, 23.41156%, 87.860107%)" offset="0.597656"/><stop stop-opacity="1" stop-color="rgb(19.271851%, 22.55249%, 88.737488%)" offset="0.601562"/><stop stop-opacity="1" stop-color="rgb(19.259644%, 21.69342%, 89.613342%)" offset="0.605469"/><stop stop-opacity="1" stop-color="rgb(19.248962%, 20.834351%, 90.489197%)" offset="0.609375"/><stop stop-opacity="1" stop-color="rgb(19.238281%, 19.973755%, 91.365051%)" offset="0.613281"/><stop stop-opacity="1" stop-color="rgb(19.2276%, 19.114685%, 92.240906%)" offset="0.617187"/><stop stop-opacity="1" stop-color="rgb(19.223022%, 18.771362%, 92.590332%)" offset="0.621094"/><stop stop-opacity="1" stop-color="rgb(19.219971%, 18.429565%, 92.939758%)" offset="0.625"/><stop stop-opacity="1" stop-color="rgb(19.219971%, 18.429565%, 92.939758%)" offset="0.75"/><stop stop-opacity="1" stop-color="rgb(19.219971%, 18.429565%, 92.939758%)" offset="1"/></linearGradient><clipPath id="fe78885b81"><rect x="0" width="946" y="0" height="325"/></clipPath><clipPath id="11267d8e85"><path d="M 0.511719 0 L 945.832031 0 L 945.832031 325 L 0.511719 325 Z M 0.511719 0 " clip-rule="nonzero"/></clipPath><clipPath id="7e2794b904"><rect x="0" width="946" y="0" height="325"/></clipPath><clipPath id="c2f9f9fc1e"><rect x="0" width="946" y="0" height="325"/></clipPath><mask id="ab3835e301"><g filter="url(#77e5ad1695)"><g transform="matrix(1, 0, 0, 1, 0, 0)"><g clip-path="url(#c2f9f9fc1e)"><g clip-path="url(#11267d8e85)"><g transform="matrix(1, 0, 0, 1, 0, 0)"><g clip-path="url(#7e2794b904)"><g fill="#000000" fill-opacity="1"><g transform="translate(54.946518, 218.152415)"><g><path d="M 104.203125 -34.96875 C 104.203125 -29.226562 102.828125 -24.023438 100.078125 -19.359375 C 97.328125 -14.703125 93.707031 -10.726562 89.21875 -7.4375 C 84.738281 -4.15625 79.75 -1.648438 74.25 0.078125 C 68.75 1.816406 63.191406 2.6875 57.578125 2.6875 C 52.191406 2.6875 46.6875 1.878906 41.0625 0.265625 C 35.445312 -1.347656 30.25 -3.796875 25.46875 -7.078125 C 20.6875 -10.367188 16.828125 -14.554688 13.890625 -19.640625 C 10.960938 -24.722656 9.5 -30.789062 9.5 -37.84375 L 9.5 -80.171875 C 9.5 -87.222656 10.960938 -93.289062 13.890625 -98.375 C 16.828125 -103.457031 20.6875 -107.640625 25.46875 -110.921875 C 30.25 -114.210938 35.445312 -116.664062 41.0625 -118.28125 C 46.6875 -119.894531 52.191406 -120.703125 57.578125 -120.703125 C 64.984375 -120.703125 72.09375 -119.445312 78.90625 -116.9375 C 85.726562 -114.425781 91.46875 -110.660156 96.125 -105.640625 C 100.789062 -100.617188 103.484375 -94.28125 104.203125 -86.625 C 104.203125 -84.476562 103.785156 -83.070312 102.953125 -82.40625 C 102.117188 -81.75 100.679688 -81.421875 98.640625 -81.421875 L 81.421875 -81.421875 C 79.515625 -81.421875 78.320312 -82.078125 77.84375 -83.390625 C 77.363281 -84.710938 76.765625 -85.910156 76.046875 -86.984375 C 74.128906 -89.972656 71.796875 -92.15625 69.046875 -93.53125 C 66.296875 -94.90625 62.472656 -95.59375 57.578125 -95.59375 C 51.710938 -95.59375 46.925781 -94.007812 43.21875 -90.84375 C 39.519531 -87.675781 37.671875 -83.28125 37.671875 -77.65625 L 37.671875 -40.359375 C 37.671875 -34.617188 39.519531 -30.191406 43.21875 -27.078125 C 46.925781 -23.972656 51.710938 -22.421875 57.578125 -22.421875 C 62.472656 -22.421875 66.65625 -23.375 70.125 -25.28125 C 73.59375 -27.195312 75.6875 -30.304688 76.40625 -34.609375 C 76.644531 -36.410156 77.03125 -37.9375 77.5625 -39.1875 C 78.101562 -40.445312 79.332031 -41.078125 81.25 -41.078125 L 98.828125 -41.078125 C 102.410156 -41.078125 104.203125 -39.039062 104.203125 -34.96875 Z M 104.203125 -34.96875 "/></g></g></g><g fill="#000000" fill-opacity="1"><g transform="translate(167.04427, 218.152415)"><g><path d="M 109.953125 -5.734375 C 110.785156 -4.546875 110.960938 -3.289062 110.484375 -1.96875 C 110.003906 -0.65625 108.925781 0 107.25 0 L 86.09375 0 C 83.9375 0 82.226562 -0.414062 80.96875 -1.25 C 79.71875 -2.09375 78.4375 -3.46875 77.125 -5.375 L 57.75 -34.25 C 56.914062 -35.332031 56.378906 -36.5 56.140625 -37.75 C 55.898438 -39.007812 55.78125 -40.894531 55.78125 -43.40625 L 55.78125 -57.75 C 55.78125 -59.425781 56.140625 -60.710938 56.859375 -61.609375 C 57.578125 -62.503906 58.953125 -62.953125 60.984375 -62.953125 L 64.5625 -62.953125 C 68.988281 -62.953125 72.9375 -64.328125 76.40625 -67.078125 C 79.875 -69.828125 81.609375 -73.296875 81.609375 -77.484375 C 81.609375 -82.148438 80.023438 -85.859375 76.859375 -88.609375 C 73.691406 -91.359375 69.773438 -92.734375 65.109375 -92.734375 L 41.25 -92.734375 L 41.25 -5.203125 C 41.25 -3.171875 40.800781 -1.796875 39.90625 -1.078125 C 39.007812 -0.359375 37.722656 0 36.046875 0 L 18.296875 0 C 16.742188 0 15.515625 -0.359375 14.609375 -1.078125 C 13.710938 -1.796875 13.265625 -3.171875 13.265625 -5.203125 L 13.265625 -112.640625 C 13.265625 -114.316406 13.59375 -115.601562 14.25 -116.5 C 14.914062 -117.394531 16.265625 -117.84375 18.296875 -117.84375 L 63.5 -117.84375 C 70.070312 -117.84375 75.507812 -117.421875 79.8125 -116.578125 C 84.113281 -115.742188 87.789062 -114.457031 90.84375 -112.71875 C 93.894531 -110.988281 96.675781 -108.867188 99.1875 -106.359375 C 102.53125 -103.128906 105.097656 -99.0625 106.890625 -94.15625 C 108.691406 -89.257812 109.59375 -83.941406 109.59375 -78.203125 C 109.59375 -71.984375 108.273438 -66.421875 105.640625 -61.515625 C 103.015625 -56.617188 99.785156 -52.554688 95.953125 -49.328125 C 92.128906 -46.097656 88.363281 -43.828125 84.65625 -42.515625 Z M 109.953125 -5.734375 "/></g></g></g><g fill="#000000" fill-opacity="1"><g transform="translate(285.240136, 218.152415)"><g><path d="M 103.125 -118.015625 C 104.800781 -118.015625 105.816406 -117.414062 106.171875 -116.21875 C 106.535156 -115.03125 106.476562 -113.957031 106 -113 L 69.046875 -44.296875 L 69.046875 -5.203125 C 69.046875 -3.171875 68.597656 -1.796875 67.703125 -1.078125 C 66.804688 -0.359375 65.523438 0 63.859375 0 L 45.921875 0 C 44.242188 0 42.957031 -0.359375 42.0625 -1.078125 C 41.164062 -1.796875 40.71875 -3.171875 40.71875 -5.203125 L 40.71875 -44.296875 L 2.328125 -113 C 1.847656 -113.957031 1.785156 -115.03125 2.140625 -116.21875 C 2.503906 -117.414062 3.523438 -118.015625 5.203125 -118.015625 L 25.828125 -118.015625 C 27.859375 -118.015625 29.472656 -117.710938 30.671875 -117.109375 C 31.867188 -116.515625 33.0625 -115.023438 34.25 -112.640625 L 55.25 -74.078125 L 75.515625 -112.640625 C 76.703125 -115.023438 77.863281 -116.515625 79 -117.109375 C 80.144531 -117.710938 81.734375 -118.015625 83.765625 -118.015625 Z M 103.125 -118.015625 "/></g></g></g><g fill="#000000" fill-opacity="1"><g transform="translate(392.315908, 218.152415)"><g><path d="M 64.5625 -24.578125 C 66.601562 -24.578125 67.976562 -24.125 68.6875 -23.21875 C 69.40625 -22.320312 69.765625 -21.039062 69.765625 -19.375 L 69.765625 -5.203125 C 69.765625 -3.648438 69.40625 -2.394531 68.6875 -1.4375 C 67.976562 -0.476562 66.601562 0 64.5625 0 L 13.8125 0 C 11.78125 0 10.40625 -0.476562 9.6875 -1.4375 C 8.96875 -2.394531 8.609375 -3.648438 8.609375 -5.203125 L 8.609375 -19.375 C 8.609375 -21.039062 8.96875 -22.320312 9.6875 -23.21875 C 10.40625 -24.125 11.78125 -24.578125 13.8125 -24.578125 L 25.109375 -24.578125 L 25.109375 -93.09375 L 14.171875 -93.09375 C 12.140625 -93.09375 10.765625 -93.566406 10.046875 -94.515625 C 9.328125 -95.472656 8.96875 -96.726562 8.96875 -98.28125 L 8.96875 -112.8125 C 8.96875 -114.488281 9.328125 -115.773438 10.046875 -116.671875 C 10.765625 -117.566406 12.140625 -118.015625 14.171875 -118.015625 L 64.03125 -118.015625 C 66.0625 -118.015625 67.4375 -117.566406 68.15625 -116.671875 C 68.875 -115.773438 69.234375 -114.488281 69.234375 -112.8125 L 69.234375 -98.28125 C 69.234375 -96.726562 68.875 -95.472656 68.15625 -94.515625 C 67.4375 -93.566406 66.0625 -93.09375 64.03125 -93.09375 L 53.265625 -93.09375 L 53.265625 -24.578125 Z M 64.5625 -24.578125 "/></g></g></g><g fill="#000000" fill-opacity="1"><g transform="translate(470.69466, 218.152415)"><g><path d="M 114.796875 -5.015625 C 115.265625 -3.941406 115.378906 -2.835938 115.140625 -1.703125 C 114.910156 -0.566406 113.773438 0 111.734375 0 L 92.90625 0 C 90.988281 0 89.550781 -0.359375 88.59375 -1.078125 C 87.644531 -1.796875 86.8125 -3.226562 86.09375 -5.375 L 81.078125 -19.546875 L 37.125 -19.546875 L 32.109375 -5.375 C 31.390625 -3.226562 30.582031 -1.796875 29.6875 -1.078125 C 28.789062 -0.359375 27.328125 0 25.296875 0 L 6.453125 0 C 4.546875 0 3.441406 -0.566406 3.140625 -1.703125 C 2.835938 -2.835938 2.925781 -3.941406 3.40625 -5.015625 L 43.21875 -112.453125 C 43.9375 -114.367188 44.863281 -115.773438 46 -116.671875 C 47.132812 -117.566406 48.660156 -118.015625 50.578125 -118.015625 L 67.796875 -118.015625 C 69.828125 -118.015625 71.347656 -117.566406 72.359375 -116.671875 C 73.378906 -115.773438 74.3125 -114.367188 75.15625 -112.453125 Z M 59.1875 -84.296875 L 45.734375 -44.65625 L 72.640625 -44.65625 Z M 59.1875 -84.296875 "/></g></g></g></g></g></g></g></g></g></mask><clipPath id="443e3c5205"><path d="M 0.511719 0 L 944.816406 0 L 944.816406 325 L 0.511719 325 Z M 0.511719 0 " clip-rule="nonzero"/></clipPath><clipPath id="5e56955327"><rect x="0" width="946" y="0" height="325"/></clipPath><clipPath id="3d55779619"><rect x="0" width="946" y="0" height="325"/></clipPath><clipPath id="c94a537874"><rect x="0" width="946" y="0" height="325"/></clipPath><clipPath id="df28915e3b"><rect x="0" width="991" y="0" height="325"/></clipPath></defs><g clip-path="url(#f4d1299a06)"><g transform="matrix(1, 0, 0, 1, 0, 0)"><g clip-path="url(#df28915e3b)"><g clip-path="url(#209299fe4e)"><g transform="matrix(1, 0, 0, 1, 381, 0)"><g clip-path="url(#b8c20e9949)"><g clip-path="url(#a658d52262)"><g transform="matrix(1, 0, 0, 1, 1, 0)"><g clip-path="url(#41ee5d6519)"><g clip-path="url(#910d58b1ad)"><g mask="url(#73e99fdf17)"><g transform="matrix(1, 0, 0, 1, -0.000000000000056843, 0)"><g clip-path="url(#52e9904466)"><g clip-path="url(#b7802ecc69)"><path fill="url(#8bb4b10a02)" d="M 0.558594 0 L 0.558594 325 L 608.488281 325 L 608.488281 0 Z M 0.558594 0 " fill-rule="nonzero"/></g></g></g></g></g></g></g></g></g></g></g><g clip-path="url(#572189b5e2)"><g transform="matrix(1, 0, 0, 1, 0, 0)"><g clip-path="url(#c94a537874)"><g clip-path="url(#7778fb1349)"><g transform="matrix(1, 0, 0, 1, 0, 0)"><g clip-path="url(#3d55779619)"><g clip-path="url(#212f0ff23e)"><g mask="url(#ab3835e301)"><g transform="matrix(1, 0, 0, 1, 0, 0)"><g clip-path="url(#5e56955327)"><g clip-path="url(#443e3c5205)"><path fill="url(#99e34544ef)" d="M 0.511719 0 L 0.511719 325 L 944.816406 325 L 944.816406 0 Z M 0.511719 0 " fill-rule="nonzero"/></g></g></g></g></g></g></g></g></g></g></g></g></g></g></svg>