<svg xmlns="http://www.w3.org/2000/svg" xmlns:xlink="http://www.w3.org/1999/xlink" width="839" zoomAndPan="magnify" viewBox="0 0 629.25 187.499995" height="250" preserveAspectRatio="xMidYMid meet" version="1.0"><defs><filter x="0%" y="0%" width="100%" height="100%" id="8a0c09a8f2"><feColorMatrix values="0 0 0 0 1 0 0 0 0 1 0 0 0 0 1 0 0 0 1 0" color-interpolation-filters="sRGB"/></filter><g/><clipPath id="802106aec6"><path d="M 0.460938 0 L 628.039062 0 L 628.039062 187 L 0.460938 187 Z M 0.460938 0 " clip-rule="nonzero"/></clipPath><clipPath id="0d54ff1a2b"><path d="M 219 0 L 628.039062 0 L 628.039062 187 L 219 187 Z M 219 0 " clip-rule="nonzero"/></clipPath><clipPath id="306a4287c0"><path d="M 1.425781 0 L 409.039062 0 L 409.039062 187 L 1.425781 187 Z M 1.425781 0 " clip-rule="nonzero"/></clipPath><clipPath id="413b33fa6d"><path d="M 0.425781 0 L 408.039062 0 L 408.039062 187 L 0.425781 187 Z M 0.425781 0 " clip-rule="nonzero"/></clipPath><clipPath id="f40494dd88"><path d="M 0.425781 0 L 408.039062 0 L 408.039062 187 L 0.425781 187 Z M 0.425781 0 " clip-rule="nonzero"/></clipPath><linearGradient x1="-285.04599" gradientTransform="matrix(0.493732, 0, 0, 0.493468, 141.164063, 54.398873)" y1="101" x2="540.52607" gradientUnits="userSpaceOnUse" y2="101" id="99ecb63500"><stop stop-opacity="1" stop-color="rgb(81.568909%, 83.529663%, 100%)" offset="0"/><stop stop-opacity="1" stop-color="rgb(81.568909%, 83.529663%, 100%)" offset="0.25"/><stop stop-opacity="1" stop-color="rgb(81.568909%, 83.529663%, 100%)" offset="0.3125"/><stop stop-opacity="1" stop-color="rgb(81.568909%, 83.529663%, 100%)" offset="0.34375"/><stop stop-opacity="1" stop-color="rgb(81.745911%, 83.676147%, 99.888611%)" offset="0.359375"/><stop stop-opacity="1" stop-color="rgb(82.022095%, 83.903503%, 99.717712%)" offset="0.367188"/><stop stop-opacity="1" stop-color="rgb(82.218933%, 84.066772%, 99.595642%)" offset="0.375"/><stop stop-opacity="1" stop-color="rgb(82.415771%, 84.230042%, 99.473572%)" offset="0.382812"/><stop stop-opacity="1" stop-color="rgb(82.61261%, 84.393311%, 99.349976%)" offset="0.390625"/><stop stop-opacity="1" stop-color="rgb(82.809448%, 84.55658%, 99.227905%)" offset="0.398438"/><stop stop-opacity="1" stop-color="rgb(83.006287%, 84.718323%, 99.105835%)" offset="0.40625"/><stop stop-opacity="1" stop-color="rgb(83.203125%, 84.881592%, 98.983765%)" offset="0.414062"/><stop stop-opacity="1" stop-color="rgb(83.399963%, 85.044861%, 98.861694%)" offset="0.421875"/><stop stop-opacity="1" stop-color="rgb(83.596802%, 85.20813%, 98.739624%)" offset="0.429688"/><stop stop-opacity="1" stop-color="rgb(83.79364%, 85.369873%, 98.617554%)" offset="0.4375"/><stop stop-opacity="1" stop-color="rgb(83.990479%, 85.533142%, 98.495483%)" offset="0.445312"/><stop stop-opacity="1" stop-color="rgb(84.187317%, 85.696411%, 98.373413%)" offset="0.453125"/><stop stop-opacity="1" stop-color="rgb(84.384155%, 85.85968%, 98.249817%)" offset="0.460938"/><stop stop-opacity="1" stop-color="rgb(84.580994%, 86.022949%, 98.127747%)" offset="0.46875"/><stop stop-opacity="1" stop-color="rgb(84.777832%, 86.184692%, 98.005676%)" offset="0.476563"/><stop stop-opacity="1" stop-color="rgb(84.97467%, 86.347961%, 97.883606%)" offset="0.484375"/><stop stop-opacity="1" stop-color="rgb(85.171509%, 86.51123%, 97.761536%)" offset="0.492187"/><stop stop-opacity="1" stop-color="rgb(85.368347%, 86.6745%, 97.639465%)" offset="0.5"/><stop stop-opacity="1" stop-color="rgb(85.565186%, 86.836243%, 97.517395%)" offset="0.507812"/><stop stop-opacity="1" stop-color="rgb(85.762024%, 86.999512%, 97.395325%)" offset="0.515625"/><stop stop-opacity="1" stop-color="rgb(85.958862%, 87.162781%, 97.273254%)" offset="0.523438"/><stop stop-opacity="1" stop-color="rgb(86.155701%, 87.32605%, 97.149658%)" offset="0.53125"/><stop stop-opacity="1" stop-color="rgb(86.352539%, 87.489319%, 97.027588%)" offset="0.539062"/><stop stop-opacity="1" stop-color="rgb(86.549377%, 87.651062%, 96.905518%)" offset="0.546875"/><stop stop-opacity="1" stop-color="rgb(86.747742%, 87.814331%, 96.783447%)" offset="0.554688"/><stop stop-opacity="1" stop-color="rgb(86.94458%, 87.9776%, 96.661377%)" offset="0.5625"/><stop stop-opacity="1" stop-color="rgb(87.141418%, 88.140869%, 96.539307%)" offset="0.570312"/><stop stop-opacity="1" stop-color="rgb(87.338257%, 88.302612%, 96.417236%)" offset="0.578125"/><stop stop-opacity="1" stop-color="rgb(87.535095%, 88.465881%, 96.295166%)" offset="0.585938"/><stop stop-opacity="1" stop-color="rgb(87.731934%, 88.62915%, 96.173096%)" offset="0.59375"/><stop stop-opacity="1" stop-color="rgb(87.928772%, 88.792419%, 96.0495%)" offset="0.601562"/><stop stop-opacity="1" stop-color="rgb(88.12561%, 88.955688%, 95.927429%)" offset="0.609375"/><stop stop-opacity="1" stop-color="rgb(88.322449%, 89.117432%, 95.805359%)" offset="0.617188"/><stop stop-opacity="1" stop-color="rgb(88.519287%, 89.280701%, 95.683289%)" offset="0.625"/><stop stop-opacity="1" stop-color="rgb(88.716125%, 89.44397%, 95.561218%)" offset="0.632812"/><stop stop-opacity="1" stop-color="rgb(88.912964%, 89.607239%, 95.439148%)" offset="0.640625"/><stop stop-opacity="1" stop-color="rgb(89.109802%, 89.768982%, 95.317078%)" offset="0.648438"/><stop stop-opacity="1" stop-color="rgb(89.306641%, 89.932251%, 95.195007%)" offset="0.65625"/><stop stop-opacity="1" stop-color="rgb(89.503479%, 90.09552%, 95.072937%)" offset="0.664062"/><stop stop-opacity="1" stop-color="rgb(89.700317%, 90.258789%, 94.949341%)" offset="0.671875"/><stop stop-opacity="1" stop-color="rgb(89.897156%, 90.420532%, 94.827271%)" offset="0.679688"/><stop stop-opacity="1" stop-color="rgb(90.093994%, 90.583801%, 94.7052%)" offset="0.6875"/><stop stop-opacity="1" stop-color="rgb(90.290833%, 90.74707%, 94.58313%)" offset="0.695312"/><stop stop-opacity="1" stop-color="rgb(90.487671%, 90.910339%, 94.46106%)" offset="0.703125"/><stop stop-opacity="1" stop-color="rgb(90.684509%, 91.073608%, 94.338989%)" offset="0.710938"/><stop stop-opacity="1" stop-color="rgb(90.881348%, 91.235352%, 94.216919%)" offset="0.71875"/><stop stop-opacity="1" stop-color="rgb(91.078186%, 91.398621%, 94.094849%)" offset="0.726562"/><stop stop-opacity="1" stop-color="rgb(91.275024%, 91.56189%, 93.972778%)" offset="0.734375"/><stop stop-opacity="1" stop-color="rgb(91.471863%, 91.725159%, 93.850708%)" offset="0.742188"/><stop stop-opacity="1" stop-color="rgb(91.668701%, 91.886902%, 93.727112%)" offset="0.75"/><stop stop-opacity="1" stop-color="rgb(91.86554%, 92.050171%, 93.605042%)" offset="0.757812"/><stop stop-opacity="1" stop-color="rgb(92.062378%, 92.21344%, 93.482971%)" offset="0.765625"/><stop stop-opacity="1" stop-color="rgb(92.259216%, 92.376709%, 93.360901%)" offset="0.773437"/><stop stop-opacity="1" stop-color="rgb(92.456055%, 92.539978%, 93.238831%)" offset="0.78125"/><stop stop-opacity="1" stop-color="rgb(92.747498%, 92.779541%, 93.058777%)" offset="0.8125"/><stop stop-opacity="1" stop-color="rgb(92.939758%, 92.939758%, 92.939758%)" offset="0.875"/><stop stop-opacity="1" stop-color="rgb(92.939758%, 92.939758%, 92.939758%)" offset="1"/></linearGradient><clipPath id="cbe7e04cc0"><rect x="0" width="409" y="0" height="187"/></clipPath><clipPath id="1437de7c91"><path d="M 0.425781 0 L 408.039062 0 L 408.039062 187 L 0.425781 187 Z M 0.425781 0 " clip-rule="nonzero"/></clipPath><clipPath id="4462d41a2f"><rect x="0" width="409" y="0" height="187"/></clipPath><clipPath id="0433f4deaa"><rect x="0" width="409" y="0" height="187"/></clipPath><mask id="8f21d6eff1"><g filter="url(#8a0c09a8f2)"><g transform="matrix(1, 0, 0, 1, -0.000000000000085265, 0)"><g clip-path="url(#0433f4deaa)"><g clip-path="url(#1437de7c91)"><g transform="matrix(1, 0, 0, 1, -0.000000000000085265, 0)"><g clip-path="url(#4462d41a2f)"><g fill="#000000" fill-opacity="1"><g transform="translate(141.082512, 125.954363)"><g><path d="M 41.15625 -52.765625 L 46.78125 -52.765625 L 46.78125 0 L 41.15625 0 L 41.15625 -23.5625 L 12.046875 -23.5625 L 12.046875 0 L 6.421875 0 L 6.421875 -52.765625 L 12.046875 -52.765625 L 12.046875 -29.1875 L 41.15625 -29.1875 Z M 41.15625 -52.765625 "/></g></g></g><g fill="#000000" fill-opacity="1"><g transform="translate(205.176316, 125.954363)"><g><path d="M 25.9375 0.703125 C 22.125 0.703125 18.722656 -0.0703125 15.734375 -1.625 C 12.742188 -3.175781 10.398438 -5.316406 8.703125 -8.046875 C 7.003906 -10.773438 6.15625 -13.867188 6.15625 -17.328125 L 6.15625 -52.765625 L 11.78125 -52.765625 L 11.78125 -18.203125 C 11.78125 -15.679688 12.394531 -13.410156 13.625 -11.390625 C 14.851562 -9.367188 16.535156 -7.785156 18.671875 -6.640625 C 20.816406 -5.492188 23.238281 -4.921875 25.9375 -4.921875 C 28.695312 -4.921875 31.144531 -5.492188 33.28125 -6.640625 C 35.414062 -7.785156 37.097656 -9.367188 38.328125 -11.390625 C 39.566406 -13.410156 40.1875 -15.679688 40.1875 -18.203125 L 40.1875 -52.765625 L 45.8125 -52.765625 L 45.8125 -17.328125 C 45.8125 -13.867188 44.960938 -10.773438 43.265625 -8.046875 C 41.566406 -5.316406 39.222656 -3.175781 36.234375 -1.625 C 33.242188 -0.0703125 29.8125 0.703125 25.9375 0.703125 Z M 25.9375 0.703125 "/></g></g></g><g fill="#000000" fill-opacity="1"><g transform="translate(268.03925, 125.954363)"><g><path d="M 32.453125 -26.734375 C 35.203125 -25.796875 37.457031 -24.226562 39.21875 -22.03125 C 40.976562 -19.832031 41.859375 -17.117188 41.859375 -13.890625 C 41.859375 -11.191406 41.210938 -8.785156 39.921875 -6.671875 C 38.628906 -4.566406 36.898438 -2.925781 34.734375 -1.75 C 32.566406 -0.582031 30.132812 0 27.4375 0 L 6.421875 0 L 6.421875 -52.765625 L 25.59375 -52.765625 C 28.28125 -52.765625 30.722656 -52.160156 32.921875 -50.953125 C 35.128906 -49.753906 36.890625 -48.097656 38.203125 -45.984375 C 39.523438 -43.878906 40.1875 -41.445312 40.1875 -38.6875 C 40.1875 -35.875 39.484375 -33.441406 38.078125 -31.390625 C 36.671875 -29.335938 34.796875 -27.785156 32.453125 -26.734375 Z M 34.5625 -38.25 C 34.5625 -40.832031 33.617188 -42.957031 31.734375 -44.625 C 29.859375 -46.289062 27.601562 -47.125 24.96875 -47.125 L 11.953125 -47.125 L 11.953125 -29.109375 L 24.96875 -29.109375 C 27.601562 -29.109375 29.859375 -29.984375 31.734375 -31.734375 C 33.617188 -33.492188 34.5625 -35.664062 34.5625 -38.25 Z M 26.734375 -5.625 C 29.304688 -5.625 31.53125 -6.457031 33.40625 -8.125 C 35.289062 -9.800781 36.234375 -11.929688 36.234375 -14.515625 C 36.234375 -17.085938 35.289062 -19.253906 33.40625 -21.015625 C 31.53125 -22.773438 29.304688 -23.65625 26.734375 -23.65625 L 11.953125 -23.65625 L 11.953125 -5.625 Z M 26.734375 -5.625 "/></g></g></g></g></g></g></g></g></g></mask><clipPath id="c03d6f79e4"><path d="M 0.425781 0 L 408.039062 0 L 408.039062 187 L 0.425781 187 Z M 0.425781 0 " clip-rule="nonzero"/></clipPath><clipPath id="a096cf50b7"><rect x="0" width="409" y="0" height="187"/></clipPath><clipPath id="65085fc9c1"><rect x="0" width="409" y="0" height="187"/></clipPath><clipPath id="a5bf0333ea"><rect x="0" width="410" y="0" height="187"/></clipPath><clipPath id="be57438b77"><path d="M 0.460938 0 L 545 0 L 545 187 L 0.460938 187 Z M 0.460938 0 " clip-rule="nonzero"/></clipPath><clipPath id="1b9df1d466"><path d="M 0.460938 0 L 544.734375 0 L 544.734375 187 L 0.460938 187 Z M 0.460938 0 " clip-rule="nonzero"/></clipPath><clipPath id="cb66c1d0c0"><path d="M 0.460938 0 L 544.734375 0 L 544.734375 187 L 0.460938 187 Z M 0.460938 0 " clip-rule="nonzero"/></clipPath><clipPath id="54704d8ad0"><path d="M 0.460938 0 L 544.148438 0 L 544.148438 187 L 0.460938 187 Z M 0.460938 0 " clip-rule="nonzero"/></clipPath><linearGradient x1="-53.124039" gradientTransform="matrix(0.58528, 0, 0, 0.585246, 31.555192, 21.118921)" y1="123" x2="875.80662" gradientUnits="userSpaceOnUse" y2="123" id="22e80a0084"><stop stop-opacity="1" stop-color="rgb(90.19928%, 90.19928%, 90.19928%)" offset="0"/><stop stop-opacity="1" stop-color="rgb(90.19928%, 90.19928%, 90.19928%)" offset="0.03125"/><stop stop-opacity="1" stop-color="rgb(90.19928%, 90.19928%, 90.19928%)" offset="0.046875"/><stop stop-opacity="1" stop-color="rgb(90.19928%, 90.19928%, 90.19928%)" offset="0.0546875"/><stop stop-opacity="1" stop-color="rgb(89.537048%, 90.106201%, 89.628601%)" offset="0.0585938"/><stop stop-opacity="1" stop-color="rgb(88.874817%, 90.014648%, 89.059448%)" offset="0.0625"/><stop stop-opacity="1" stop-color="rgb(87.89978%, 89.877319%, 88.221741%)" offset="0.0664062"/><stop stop-opacity="1" stop-color="rgb(86.92627%, 89.741516%, 87.384033%)" offset="0.0703125"/><stop stop-opacity="1" stop-color="rgb(85.952759%, 89.605713%, 86.546326%)" offset="0.0742188"/><stop stop-opacity="1" stop-color="rgb(84.979248%, 89.46991%, 85.708618%)" offset="0.078125"/><stop stop-opacity="1" stop-color="rgb(84.004211%, 89.334106%, 84.869385%)" offset="0.0820312"/><stop stop-opacity="1" stop-color="rgb(83.030701%, 89.198303%, 84.031677%)" offset="0.0859375"/><stop stop-opacity="1" stop-color="rgb(82.05719%, 89.060974%, 83.19397%)" offset="0.0898438"/><stop stop-opacity="1" stop-color="rgb(81.083679%, 88.925171%, 82.356262%)" offset="0.09375"/><stop stop-opacity="1" stop-color="rgb(80.108643%, 88.789368%, 81.517029%)" offset="0.0976562"/><stop stop-opacity="1" stop-color="rgb(79.135132%, 88.653564%, 80.679321%)" offset="0.101562"/><stop stop-opacity="1" stop-color="rgb(78.161621%, 88.516235%, 79.841614%)" offset="0.105469"/><stop stop-opacity="1" stop-color="rgb(77.18811%, 88.380432%, 79.003906%)" offset="0.109375"/><stop stop-opacity="1" stop-color="rgb(76.213074%, 88.244629%, 78.166199%)" offset="0.113281"/><stop stop-opacity="1" stop-color="rgb(75.239563%, 88.108826%, 77.328491%)" offset="0.117188"/><stop stop-opacity="1" stop-color="rgb(74.266052%, 87.973022%, 76.489258%)" offset="0.121094"/><stop stop-opacity="1" stop-color="rgb(73.292542%, 87.837219%, 75.65155%)" offset="0.125"/><stop stop-opacity="1" stop-color="rgb(72.317505%, 87.69989%, 74.813843%)" offset="0.128906"/><stop stop-opacity="1" stop-color="rgb(71.343994%, 87.564087%, 73.976135%)" offset="0.132812"/><stop stop-opacity="1" stop-color="rgb(70.368958%, 87.428284%, 73.138428%)" offset="0.136719"/><stop stop-opacity="1" stop-color="rgb(69.395447%, 87.29248%, 72.30072%)" offset="0.140625"/><stop stop-opacity="1" stop-color="rgb(68.421936%, 87.155151%, 71.461487%)" offset="0.144531"/><stop stop-opacity="1" stop-color="rgb(67.448425%, 87.019348%, 70.623779%)" offset="0.148438"/><stop stop-opacity="1" stop-color="rgb(66.473389%, 86.883545%, 69.786072%)" offset="0.152344"/><stop stop-opacity="1" stop-color="rgb(65.499878%, 86.747742%, 68.948364%)" offset="0.15625"/><stop stop-opacity="1" stop-color="rgb(64.526367%, 86.611938%, 68.110657%)" offset="0.160156"/><stop stop-opacity="1" stop-color="rgb(63.552856%, 86.476135%, 67.272949%)" offset="0.164062"/><stop stop-opacity="1" stop-color="rgb(62.57782%, 86.338806%, 66.433716%)" offset="0.167969"/><stop stop-opacity="1" stop-color="rgb(61.604309%, 86.203003%, 65.596008%)" offset="0.171875"/><stop stop-opacity="1" stop-color="rgb(60.630798%, 86.0672%, 64.758301%)" offset="0.175781"/><stop stop-opacity="1" stop-color="rgb(59.657288%, 85.931396%, 63.920593%)" offset="0.179687"/><stop stop-opacity="1" stop-color="rgb(58.682251%, 85.794067%, 63.082886%)" offset="0.183594"/><stop stop-opacity="1" stop-color="rgb(57.70874%, 85.658264%, 62.245178%)" offset="0.1875"/><stop stop-opacity="1" stop-color="rgb(56.735229%, 85.522461%, 61.405945%)" offset="0.191406"/><stop stop-opacity="1" stop-color="rgb(55.761719%, 85.386658%, 60.568237%)" offset="0.195312"/><stop stop-opacity="1" stop-color="rgb(54.786682%, 85.250854%, 59.73053%)" offset="0.199219"/><stop stop-opacity="1" stop-color="rgb(53.813171%, 85.115051%, 58.892822%)" offset="0.203125"/><stop stop-opacity="1" stop-color="rgb(52.838135%, 84.977722%, 58.055115%)" offset="0.207031"/><stop stop-opacity="1" stop-color="rgb(51.864624%, 84.841919%, 57.217407%)" offset="0.210938"/><stop stop-opacity="1" stop-color="rgb(50.891113%, 84.706116%, 56.378174%)" offset="0.214844"/><stop stop-opacity="1" stop-color="rgb(49.917603%, 84.570312%, 55.540466%)" offset="0.21875"/><stop stop-opacity="1" stop-color="rgb(48.942566%, 84.432983%, 54.702759%)" offset="0.222656"/><stop stop-opacity="1" stop-color="rgb(47.969055%, 84.29718%, 53.865051%)" offset="0.226562"/><stop stop-opacity="1" stop-color="rgb(46.995544%, 84.161377%, 53.027344%)" offset="0.230469"/><stop stop-opacity="1" stop-color="rgb(46.022034%, 84.025574%, 52.189636%)" offset="0.234375"/><stop stop-opacity="1" stop-color="rgb(45.046997%, 83.889771%, 51.350403%)" offset="0.238281"/><stop stop-opacity="1" stop-color="rgb(44.073486%, 83.753967%, 50.512695%)" offset="0.242188"/><stop stop-opacity="1" stop-color="rgb(43.099976%, 83.616638%, 49.674988%)" offset="0.246094"/><stop stop-opacity="1" stop-color="rgb(42.126465%, 83.480835%, 48.83728%)" offset="0.25"/><stop stop-opacity="1" stop-color="rgb(41.151428%, 83.345032%, 47.998047%)" offset="0.253906"/><stop stop-opacity="1" stop-color="rgb(40.177917%, 83.209229%, 47.160339%)" offset="0.257812"/><stop stop-opacity="1" stop-color="rgb(39.204407%, 83.073425%, 46.322632%)" offset="0.261719"/><stop stop-opacity="1" stop-color="rgb(38.230896%, 82.937622%, 45.484924%)" offset="0.265625"/><stop stop-opacity="1" stop-color="rgb(37.255859%, 82.800293%, 44.647217%)" offset="0.269531"/><stop stop-opacity="1" stop-color="rgb(36.282349%, 82.66449%, 43.809509%)" offset="0.273438"/><stop stop-opacity="1" stop-color="rgb(35.307312%, 82.528687%, 42.970276%)" offset="0.277344"/><stop stop-opacity="1" stop-color="rgb(34.333801%, 82.392883%, 42.132568%)" offset="0.28125"/><stop stop-opacity="1" stop-color="rgb(33.360291%, 82.255554%, 41.294861%)" offset="0.285156"/><stop stop-opacity="1" stop-color="rgb(32.38678%, 82.119751%, 40.457153%)" offset="0.289062"/><stop stop-opacity="1" stop-color="rgb(31.411743%, 81.983948%, 39.619446%)" offset="0.292969"/><stop stop-opacity="1" stop-color="rgb(30.438232%, 81.848145%, 38.781738%)" offset="0.296875"/><stop stop-opacity="1" stop-color="rgb(29.464722%, 81.712341%, 37.942505%)" offset="0.300781"/><stop stop-opacity="1" stop-color="rgb(28.491211%, 81.576538%, 37.104797%)" offset="0.304688"/><stop stop-opacity="1" stop-color="rgb(27.516174%, 81.439209%, 36.26709%)" offset="0.308594"/><stop stop-opacity="1" stop-color="rgb(26.542664%, 81.303406%, 35.429382%)" offset="0.3125"/><stop stop-opacity="1" stop-color="rgb(25.569153%, 81.167603%, 34.591675%)" offset="0.316406"/><stop stop-opacity="1" stop-color="rgb(24.595642%, 81.031799%, 33.753967%)" offset="0.320312"/><stop stop-opacity="1" stop-color="rgb(23.620605%, 80.89447%, 32.914734%)" offset="0.324219"/><stop stop-opacity="1" stop-color="rgb(22.647095%, 80.758667%, 32.077026%)" offset="0.328125"/><stop stop-opacity="1" stop-color="rgb(21.673584%, 80.622864%, 31.239319%)" offset="0.332031"/><stop stop-opacity="1" stop-color="rgb(20.700073%, 80.487061%, 30.401611%)" offset="0.335938"/><stop stop-opacity="1" stop-color="rgb(20.343018%, 79.88739%, 30.661011%)" offset="0.339844"/><stop stop-opacity="1" stop-color="rgb(19.985962%, 79.28772%, 30.921936%)" offset="0.34375"/><stop stop-opacity="1" stop-color="rgb(19.973755%, 78.427124%, 31.797791%)" offset="0.347656"/><stop stop-opacity="1" stop-color="rgb(19.963074%, 77.568054%, 32.673645%)" offset="0.351562"/><stop stop-opacity="1" stop-color="rgb(19.952393%, 76.708984%, 33.5495%)" offset="0.355469"/><stop stop-opacity="1" stop-color="rgb(19.941711%, 75.849915%, 34.425354%)" offset="0.359375"/><stop stop-opacity="1" stop-color="rgb(19.93103%, 74.989319%, 35.301208%)" offset="0.363281"/><stop stop-opacity="1" stop-color="rgb(19.920349%, 74.130249%, 36.177063%)" offset="0.367188"/><stop stop-opacity="1" stop-color="rgb(19.909668%, 73.269653%, 37.052917%)" offset="0.371094"/><stop stop-opacity="1" stop-color="rgb(19.898987%, 72.410583%, 37.928772%)" offset="0.375"/><stop stop-opacity="1" stop-color="rgb(19.888306%, 71.551514%, 38.804626%)" offset="0.378906"/><stop stop-opacity="1" stop-color="rgb(19.877625%, 70.692444%, 39.682007%)" offset="0.382812"/><stop stop-opacity="1" stop-color="rgb(19.866943%, 69.831848%, 40.557861%)" offset="0.386719"/><stop stop-opacity="1" stop-color="rgb(19.856262%, 68.972778%, 41.433716%)" offset="0.390625"/><stop stop-opacity="1" stop-color="rgb(19.844055%, 68.112183%, 42.30957%)" offset="0.394531"/><stop stop-opacity="1" stop-color="rgb(19.833374%, 67.253113%, 43.185425%)" offset="0.398438"/><stop stop-opacity="1" stop-color="rgb(19.822693%, 66.392517%, 44.061279%)" offset="0.402344"/><stop stop-opacity="1" stop-color="rgb(19.812012%, 65.533447%, 44.937134%)" offset="0.40625"/><stop stop-opacity="1" stop-color="rgb(19.801331%, 64.674377%, 45.812988%)" offset="0.410156"/><stop stop-opacity="1" stop-color="rgb(19.790649%, 63.815308%, 46.688843%)" offset="0.414062"/><stop stop-opacity="1" stop-color="rgb(19.779968%, 62.954712%, 47.564697%)" offset="0.417969"/><stop stop-opacity="1" stop-color="rgb(19.769287%, 62.095642%, 48.440552%)" offset="0.421875"/><stop stop-opacity="1" stop-color="rgb(19.758606%, 61.235046%, 49.316406%)" offset="0.425781"/><stop stop-opacity="1" stop-color="rgb(19.747925%, 60.375977%, 50.193787%)" offset="0.429687"/><stop stop-opacity="1" stop-color="rgb(19.735718%, 59.516907%, 51.069641%)" offset="0.433594"/><stop stop-opacity="1" stop-color="rgb(19.725037%, 58.657837%, 51.945496%)" offset="0.4375"/><stop stop-opacity="1" stop-color="rgb(19.714355%, 57.797241%, 52.82135%)" offset="0.441406"/><stop stop-opacity="1" stop-color="rgb(19.703674%, 56.938171%, 53.697205%)" offset="0.445313"/><stop stop-opacity="1" stop-color="rgb(19.692993%, 56.077576%, 54.573059%)" offset="0.449219"/><stop stop-opacity="1" stop-color="rgb(19.682312%, 55.218506%, 55.448914%)" offset="0.453125"/><stop stop-opacity="1" stop-color="rgb(19.671631%, 54.35791%, 56.324768%)" offset="0.457031"/><stop stop-opacity="1" stop-color="rgb(19.66095%, 53.49884%, 57.200623%)" offset="0.460938"/><stop stop-opacity="1" stop-color="rgb(19.650269%, 52.639771%, 58.076477%)" offset="0.464844"/><stop stop-opacity="1" stop-color="rgb(19.639587%, 51.780701%, 58.953857%)" offset="0.46875"/><stop stop-opacity="1" stop-color="rgb(19.62738%, 50.920105%, 59.829712%)" offset="0.472656"/><stop stop-opacity="1" stop-color="rgb(19.616699%, 50.061035%, 60.705566%)" offset="0.476562"/><stop stop-opacity="1" stop-color="rgb(19.606018%, 49.200439%, 61.581421%)" offset="0.480469"/><stop stop-opacity="1" stop-color="rgb(19.595337%, 48.34137%, 62.457275%)" offset="0.484375"/><stop stop-opacity="1" stop-color="rgb(19.584656%, 47.4823%, 63.33313%)" offset="0.488281"/><stop stop-opacity="1" stop-color="rgb(19.573975%, 46.62323%, 64.208984%)" offset="0.492188"/><stop stop-opacity="1" stop-color="rgb(19.563293%, 45.762634%, 65.084839%)" offset="0.496094"/><stop stop-opacity="1" stop-color="rgb(19.552612%, 44.903564%, 65.960693%)" offset="0.5"/><stop stop-opacity="1" stop-color="rgb(19.541931%, 44.042969%, 66.836548%)" offset="0.503906"/><stop stop-opacity="1" stop-color="rgb(19.53125%, 43.183899%, 67.712402%)" offset="0.507812"/><stop stop-opacity="1" stop-color="rgb(19.520569%, 42.323303%, 68.588257%)" offset="0.511719"/><stop stop-opacity="1" stop-color="rgb(19.509888%, 41.464233%, 69.465637%)" offset="0.515625"/><stop stop-opacity="1" stop-color="rgb(19.497681%, 40.605164%, 70.341492%)" offset="0.519531"/><stop stop-opacity="1" stop-color="rgb(19.487%, 39.746094%, 71.217346%)" offset="0.523438"/><stop stop-opacity="1" stop-color="rgb(19.476318%, 38.885498%, 72.093201%)" offset="0.527344"/><stop stop-opacity="1" stop-color="rgb(19.465637%, 38.026428%, 72.969055%)" offset="0.53125"/><stop stop-opacity="1" stop-color="rgb(19.454956%, 37.165833%, 73.84491%)" offset="0.535156"/><stop stop-opacity="1" stop-color="rgb(19.444275%, 36.306763%, 74.720764%)" offset="0.539062"/><stop stop-opacity="1" stop-color="rgb(19.433594%, 35.446167%, 75.596619%)" offset="0.542969"/><stop stop-opacity="1" stop-color="rgb(19.422913%, 34.587097%, 76.472473%)" offset="0.546875"/><stop stop-opacity="1" stop-color="rgb(19.412231%, 33.728027%, 77.348328%)" offset="0.550781"/><stop stop-opacity="1" stop-color="rgb(19.40155%, 32.868958%, 78.224182%)" offset="0.554688"/><stop stop-opacity="1" stop-color="rgb(19.389343%, 32.008362%, 79.100037%)" offset="0.558594"/><stop stop-opacity="1" stop-color="rgb(19.378662%, 31.149292%, 79.977417%)" offset="0.5625"/><stop stop-opacity="1" stop-color="rgb(19.367981%, 30.288696%, 80.853271%)" offset="0.566406"/><stop stop-opacity="1" stop-color="rgb(19.3573%, 29.429626%, 81.729126%)" offset="0.570312"/><stop stop-opacity="1" stop-color="rgb(19.346619%, 28.570557%, 82.60498%)" offset="0.574219"/><stop stop-opacity="1" stop-color="rgb(19.335938%, 27.711487%, 83.480835%)" offset="0.578125"/><stop stop-opacity="1" stop-color="rgb(19.325256%, 26.850891%, 84.356689%)" offset="0.582031"/><stop stop-opacity="1" stop-color="rgb(19.314575%, 25.991821%, 85.232544%)" offset="0.585938"/><stop stop-opacity="1" stop-color="rgb(19.303894%, 25.131226%, 86.108398%)" offset="0.589844"/><stop stop-opacity="1" stop-color="rgb(19.293213%, 24.272156%, 86.984253%)" offset="0.59375"/><stop stop-opacity="1" stop-color="rgb(19.282532%, 23.41156%, 87.860107%)" offset="0.597656"/><stop stop-opacity="1" stop-color="rgb(19.271851%, 22.55249%, 88.737488%)" offset="0.601562"/><stop stop-opacity="1" stop-color="rgb(19.259644%, 21.69342%, 89.613342%)" offset="0.605469"/><stop stop-opacity="1" stop-color="rgb(19.248962%, 20.834351%, 90.489197%)" offset="0.609375"/><stop stop-opacity="1" stop-color="rgb(19.238281%, 19.973755%, 91.365051%)" offset="0.613281"/><stop stop-opacity="1" stop-color="rgb(19.2276%, 19.114685%, 92.240906%)" offset="0.617188"/><stop stop-opacity="1" stop-color="rgb(19.223022%, 18.771362%, 92.590332%)" offset="0.621094"/><stop stop-opacity="1" stop-color="rgb(19.219971%, 18.429565%, 92.939758%)" offset="0.625"/><stop stop-opacity="1" stop-color="rgb(19.219971%, 18.429565%, 92.939758%)" offset="0.75"/><stop stop-opacity="1" stop-color="rgb(19.219971%, 18.429565%, 92.939758%)" offset="1"/></linearGradient><clipPath id="a4049370fa"><rect x="0" width="545" y="0" height="187"/></clipPath><clipPath id="0acbff0e3c"><path d="M 0.460938 0 L 544.734375 0 L 544.734375 187 L 0.460938 187 Z M 0.460938 0 " clip-rule="nonzero"/></clipPath><clipPath id="b77736d7ec"><rect x="0" width="545" y="0" height="187"/></clipPath><clipPath id="44a4d97a61"><rect x="0" width="545" y="0" height="187"/></clipPath><mask id="90d97e2777"><g filter="url(#8a0c09a8f2)"><g transform="matrix(1, 0, 0, 1, 0.000000000000000111, 0)"><g clip-path="url(#44a4d97a61)"><g clip-path="url(#0acbff0e3c)"><g transform="matrix(1, 0, 0, 1, 0.000000000000000111, 0)"><g clip-path="url(#b77736d7ec)"><g fill="#000000" fill-opacity="1"><g transform="translate(31.804199, 125.601351)"><g><path d="M 60 -20.140625 C 60 -16.835938 59.207031 -13.84375 57.625 -11.15625 C 56.039062 -8.46875 53.957031 -6.175781 51.375 -4.28125 C 48.789062 -2.394531 45.914062 -0.953125 42.75 0.046875 C 39.582031 1.046875 36.378906 1.546875 33.140625 1.546875 C 30.046875 1.546875 26.878906 1.082031 23.640625 0.15625 C 20.410156 -0.769531 17.414062 -2.179688 14.65625 -4.078125 C 11.90625 -5.972656 9.6875 -8.382812 8 -11.3125 C 6.3125 -14.238281 5.46875 -17.726562 5.46875 -21.78125 L 5.46875 -46.15625 C 5.46875 -50.21875 6.3125 -53.710938 8 -56.640625 C 9.6875 -59.566406 11.90625 -61.972656 14.65625 -63.859375 C 17.414062 -65.753906 20.410156 -67.164062 23.640625 -68.09375 C 26.878906 -69.03125 30.046875 -69.5 33.140625 -69.5 C 37.410156 -69.5 41.507812 -68.773438 45.4375 -67.328125 C 49.363281 -65.878906 52.664062 -63.707031 55.34375 -60.8125 C 58.03125 -57.925781 59.582031 -54.28125 60 -49.875 C 60 -48.632812 59.753906 -47.820312 59.265625 -47.4375 C 58.785156 -47.0625 57.960938 -46.875 56.796875 -46.875 L 46.875 -46.875 C 45.78125 -46.875 45.09375 -47.253906 44.8125 -48.015625 C 44.539062 -48.773438 44.195312 -49.460938 43.78125 -50.078125 C 42.675781 -51.804688 41.332031 -53.066406 39.75 -53.859375 C 38.164062 -54.648438 35.960938 -55.046875 33.140625 -55.046875 C 29.773438 -55.046875 27.023438 -54.128906 24.890625 -52.296875 C 22.753906 -50.472656 21.6875 -47.945312 21.6875 -44.71875 L 21.6875 -23.234375 C 21.6875 -19.929688 22.753906 -17.382812 24.890625 -15.59375 C 27.023438 -13.800781 29.773438 -12.90625 33.140625 -12.90625 C 35.960938 -12.90625 38.375 -13.457031 40.375 -14.5625 C 42.375 -15.664062 43.578125 -17.457031 43.984375 -19.9375 C 44.128906 -20.96875 44.351562 -21.84375 44.65625 -22.5625 C 44.96875 -23.28125 45.675781 -23.640625 46.78125 -23.640625 L 56.90625 -23.640625 C 58.96875 -23.640625 60 -22.472656 60 -20.140625 Z M 60 -20.140625 "/></g></g></g><g fill="#000000" fill-opacity="1"><g transform="translate(96.344528, 125.601351)"><g><path d="M 63.296875 -3.296875 C 63.785156 -2.609375 63.890625 -1.882812 63.609375 -1.125 C 63.335938 -0.375 62.71875 0 61.75 0 L 49.5625 0 C 48.320312 0 47.34375 -0.238281 46.625 -0.71875 C 45.90625 -1.207031 45.164062 -2 44.40625 -3.09375 L 33.25 -19.71875 C 32.769531 -20.34375 32.457031 -21.015625 32.3125 -21.734375 C 32.175781 -22.460938 32.109375 -23.546875 32.109375 -24.984375 L 32.109375 -33.25 C 32.109375 -34.21875 32.316406 -34.957031 32.734375 -35.46875 C 33.148438 -35.988281 33.941406 -36.25 35.109375 -36.25 L 37.171875 -36.25 C 39.722656 -36.25 41.992188 -37.039062 43.984375 -38.625 C 45.984375 -40.207031 46.984375 -42.203125 46.984375 -44.609375 C 46.984375 -47.296875 46.070312 -49.429688 44.25 -51.015625 C 42.425781 -52.597656 40.171875 -53.390625 37.484375 -53.390625 L 23.75 -53.390625 L 23.75 -3 C 23.75 -1.820312 23.488281 -1.023438 22.96875 -0.609375 C 22.457031 -0.203125 21.71875 0 20.75 0 L 10.53125 0 C 9.632812 0 8.925781 -0.203125 8.40625 -0.609375 C 7.894531 -1.023438 7.640625 -1.820312 7.640625 -3 L 7.640625 -64.84375 C 7.640625 -65.8125 7.828125 -66.550781 8.203125 -67.0625 C 8.585938 -67.582031 9.363281 -67.84375 10.53125 -67.84375 L 36.5625 -67.84375 C 40.34375 -67.84375 43.472656 -67.601562 45.953125 -67.125 C 48.429688 -66.644531 50.546875 -65.90625 52.296875 -64.90625 C 54.054688 -63.90625 55.660156 -62.679688 57.109375 -61.234375 C 59.035156 -59.378906 60.515625 -57.039062 61.546875 -54.21875 C 62.578125 -51.394531 63.09375 -48.332031 63.09375 -45.03125 C 63.09375 -41.445312 62.332031 -38.242188 60.8125 -35.421875 C 59.300781 -32.597656 57.441406 -30.253906 55.234375 -28.390625 C 53.035156 -26.535156 50.867188 -25.226562 48.734375 -24.46875 Z M 63.296875 -3.296875 "/></g></g></g><g fill="#000000" fill-opacity="1"><g transform="translate(164.395848, 125.601351)"><g><path d="M 59.375 -67.953125 C 60.34375 -67.953125 60.925781 -67.609375 61.125 -66.921875 C 61.332031 -66.234375 61.300781 -65.613281 61.03125 -65.0625 L 39.75 -25.5 L 39.75 -3 C 39.75 -1.820312 39.488281 -1.023438 38.96875 -0.609375 C 38.457031 -0.203125 37.722656 0 36.765625 0 L 26.4375 0 C 25.46875 0 24.722656 -0.203125 24.203125 -0.609375 C 23.691406 -1.023438 23.4375 -1.820312 23.4375 -3 L 23.4375 -25.5 L 1.34375 -65.0625 C 1.0625 -65.613281 1.023438 -66.234375 1.234375 -66.921875 C 1.441406 -67.609375 2.03125 -67.953125 3 -67.953125 L 14.875 -67.953125 C 16.039062 -67.953125 16.96875 -67.78125 17.65625 -67.4375 C 18.34375 -67.09375 19.03125 -66.226562 19.71875 -64.84375 L 31.8125 -42.65625 L 43.46875 -64.84375 C 44.15625 -66.226562 44.828125 -67.09375 45.484375 -67.4375 C 46.140625 -67.78125 47.050781 -67.953125 48.21875 -67.953125 Z M 59.375 -67.953125 "/></g></g></g><g fill="#000000" fill-opacity="1"><g transform="translate(226.044769, 125.601351)"><g><path d="M 37.171875 -14.140625 C 38.347656 -14.140625 39.140625 -13.878906 39.546875 -13.359375 C 39.960938 -12.847656 40.171875 -12.113281 40.171875 -11.15625 L 40.171875 -3 C 40.171875 -2.101562 39.960938 -1.378906 39.546875 -0.828125 C 39.140625 -0.273438 38.347656 0 37.171875 0 L 7.953125 0 C 6.785156 0 5.992188 -0.273438 5.578125 -0.828125 C 5.160156 -1.378906 4.953125 -2.101562 4.953125 -3 L 4.953125 -11.15625 C 4.953125 -12.113281 5.160156 -12.847656 5.578125 -13.359375 C 5.992188 -13.878906 6.785156 -14.140625 7.953125 -14.140625 L 14.453125 -14.140625 L 14.453125 -53.59375 L 8.15625 -53.59375 C 6.988281 -53.59375 6.195312 -53.867188 5.78125 -54.421875 C 5.363281 -54.972656 5.15625 -55.695312 5.15625 -56.59375 L 5.15625 -64.953125 C 5.15625 -65.921875 5.363281 -66.660156 5.78125 -67.171875 C 6.195312 -67.691406 6.988281 -67.953125 8.15625 -67.953125 L 36.859375 -67.953125 C 38.035156 -67.953125 38.828125 -67.691406 39.234375 -67.171875 C 39.648438 -66.660156 39.859375 -65.921875 39.859375 -64.953125 L 39.859375 -56.59375 C 39.859375 -55.695312 39.648438 -54.972656 39.234375 -54.421875 C 38.828125 -53.867188 38.035156 -53.59375 36.859375 -53.59375 L 30.671875 -53.59375 L 30.671875 -14.140625 Z M 37.171875 -14.140625 "/></g></g></g><g fill="#000000" fill-opacity="1"><g transform="translate(271.171369, 125.601351)"><g><path d="M 66.09375 -2.890625 C 66.363281 -2.273438 66.429688 -1.640625 66.296875 -0.984375 C 66.160156 -0.328125 65.503906 0 64.328125 0 L 53.484375 0 C 52.390625 0 51.566406 -0.203125 51.015625 -0.609375 C 50.460938 -1.023438 49.976562 -1.851562 49.5625 -3.09375 L 46.671875 -11.25 L 21.375 -11.25 L 18.484375 -3.09375 C 18.066406 -1.851562 17.597656 -1.023438 17.078125 -0.609375 C 16.566406 -0.203125 15.726562 0 14.5625 0 L 3.71875 0 C 2.613281 0 1.972656 -0.328125 1.796875 -0.984375 C 1.628906 -1.640625 1.6875 -2.273438 1.96875 -2.890625 L 24.890625 -64.75 C 25.296875 -65.851562 25.828125 -66.660156 26.484375 -67.171875 C 27.140625 -67.691406 28.019531 -67.953125 29.125 -67.953125 L 39.03125 -67.953125 C 40.207031 -67.953125 41.085938 -67.691406 41.671875 -67.171875 C 42.253906 -66.660156 42.785156 -65.851562 43.265625 -64.75 Z M 34.078125 -48.53125 L 26.328125 -25.71875 L 41.828125 -25.71875 Z M 34.078125 -48.53125 "/></g></g></g></g></g></g></g></g></g></mask><clipPath id="8baa4011b4"><path d="M 0.460938 0 L 544.148438 0 L 544.148438 187 L 0.460938 187 Z M 0.460938 0 " clip-rule="nonzero"/></clipPath><clipPath id="b28509fa7c"><rect x="0" width="545" y="0" height="187"/></clipPath><clipPath id="0f2ef83311"><rect x="0" width="545" y="0" height="187"/></clipPath><clipPath id="3e1bd37b63"><rect x="0" width="545" y="0" height="187"/></clipPath><clipPath id="f44346568c"><rect x="0" width="629" y="0" height="187"/></clipPath></defs><g clip-path="url(#802106aec6)"><g transform="matrix(1, 0, 0, 1, 0.000000000000000111, 0)"><g clip-path="url(#f44346568c)"><g clip-path="url(#0d54ff1a2b)"><g transform="matrix(1, 0, 0, 1, 219, 0)"><g clip-path="url(#a5bf0333ea)"><g clip-path="url(#306a4287c0)"><g transform="matrix(1, 0, 0, 1, 1, 0)"><g clip-path="url(#65085fc9c1)"><g clip-path="url(#413b33fa6d)"><g mask="url(#8f21d6eff1)"><g transform="matrix(1, 0, 0, 1, -0.000000000000085265, 0)"><g clip-path="url(#a096cf50b7)"><g clip-path="url(#c03d6f79e4)"><path fill="url(#99ecb63500)" d="M 0.425781 0 L 0.425781 187 L 408.039062 187 L 408.039062 0 Z M 0.425781 0 " fill-rule="nonzero"/></g></g></g></g></g></g></g></g></g></g></g><g clip-path="url(#be57438b77)"><g transform="matrix(1, 0, 0, 1, 0.000000000000000111, 0)"><g clip-path="url(#3e1bd37b63)"><g clip-path="url(#1b9df1d466)"><g transform="matrix(1, 0, 0, 1, 0.000000000000000111, 0)"><g clip-path="url(#0f2ef83311)"><g clip-path="url(#cb66c1d0c0)"><g mask="url(#90d97e2777)"><g transform="matrix(1, 0, 0, 1, 0.000000000000000111, 0)"><g clip-path="url(#b28509fa7c)"><g clip-path="url(#8baa4011b4)"><path fill="url(#22e80a0084)" d="M 0.460938 0 L 0.460938 187 L 544.148438 187 L 544.148438 0 Z M 0.460938 0 " fill-rule="nonzero"/></g></g></g></g></g></g></g></g></g></g></g></g></g></g></svg>