<svg xmlns="http://www.w3.org/2000/svg" xmlns:xlink="http://www.w3.org/1999/xlink" width="1196" zoomAndPan="magnify" viewBox="0 0 896.88 395.249997" height="527" preserveAspectRatio="xMidYMid meet" version="1.0"><defs><filter x="0%" y="0%" width="100%" height="100%" id="7c0c1dc133"><feColorMatrix values="0 0 0 0 1 0 0 0 0 1 0 0 0 0 1 0 0 0 1 0" color-interpolation-filters="sRGB"/></filter><g/><clipPath id="e0757a37c0"><path d="M 0.789062 0 L 895.972656 0 L 895.972656 394.5 L 0.789062 394.5 Z M 0.789062 0 " clip-rule="nonzero"/></clipPath><clipPath id="3c766a4cfc"><rect x="0" width="587" y="0" height="52"/></clipPath><clipPath id="5fb9c15aba"><path d="M 0.789062 0 L 895.972656 0 L 895.972656 394.5 L 0.789062 394.5 Z M 0.789062 0 " clip-rule="nonzero"/></clipPath><clipPath id="a6f2ad9929"><path d="M 0.789062 0 L 895.972656 0 L 895.972656 394.5 L 0.789062 394.5 Z M 0.789062 0 " clip-rule="nonzero"/></clipPath><clipPath id="1a2566f2ec"><path d="M 0.789062 0 L 895.972656 0 L 895.972656 394.5 L 0.789062 394.5 Z M 0.789062 0 " clip-rule="nonzero"/></clipPath><clipPath id="f30114ea89"><path d="M 0.789062 0 L 895.972656 0 L 895.972656 394.5 L 0.789062 394.5 Z M 0.789062 0 " clip-rule="nonzero"/></clipPath><linearGradient x1="-88.333571" gradientTransform="matrix(0.748546, 0, 0, 0.74873, 66.9112, 44.972386)" y1="203" x2="1107.559545" gradientUnits="userSpaceOnUse" y2="203" id="3285811536"><stop stop-opacity="1" stop-color="rgb(90.589905%, 92.939758%, 90.589905%)" offset="0"/><stop stop-opacity="1" stop-color="rgb(90.589905%, 92.939758%, 90.589905%)" offset="0.125"/><stop stop-opacity="1" stop-color="rgb(90.408325%, 92.907715%, 90.434265%)" offset="0.140625"/><stop stop-opacity="1" stop-color="rgb(89.46228%, 92.738342%, 89.619446%)" offset="0.144531"/><stop stop-opacity="1" stop-color="rgb(88.697815%, 92.602539%, 88.960266%)" offset="0.148438"/><stop stop-opacity="1" stop-color="rgb(87.931824%, 92.466736%, 88.301086%)" offset="0.152344"/><stop stop-opacity="1" stop-color="rgb(87.165833%, 92.330933%, 87.641907%)" offset="0.15625"/><stop stop-opacity="1" stop-color="rgb(86.399841%, 92.193604%, 86.982727%)" offset="0.160156"/><stop stop-opacity="1" stop-color="rgb(85.635376%, 92.0578%, 86.323547%)" offset="0.164063"/><stop stop-opacity="1" stop-color="rgb(84.869385%, 91.921997%, 85.662842%)" offset="0.167969"/><stop stop-opacity="1" stop-color="rgb(84.103394%, 91.786194%, 85.003662%)" offset="0.171875"/><stop stop-opacity="1" stop-color="rgb(83.337402%, 91.650391%, 84.344482%)" offset="0.175781"/><stop stop-opacity="1" stop-color="rgb(82.572937%, 91.514587%, 83.685303%)" offset="0.179688"/><stop stop-opacity="1" stop-color="rgb(81.806946%, 91.377258%, 83.026123%)" offset="0.183594"/><stop stop-opacity="1" stop-color="rgb(81.040955%, 91.241455%, 82.366943%)" offset="0.1875"/><stop stop-opacity="1" stop-color="rgb(80.274963%, 91.105652%, 81.707764%)" offset="0.191406"/><stop stop-opacity="1" stop-color="rgb(79.510498%, 90.969849%, 81.048584%)" offset="0.195313"/><stop stop-opacity="1" stop-color="rgb(78.744507%, 90.83252%, 80.387878%)" offset="0.199219"/><stop stop-opacity="1" stop-color="rgb(77.978516%, 90.696716%, 79.728699%)" offset="0.203125"/><stop stop-opacity="1" stop-color="rgb(77.212524%, 90.560913%, 79.069519%)" offset="0.207031"/><stop stop-opacity="1" stop-color="rgb(76.448059%, 90.42511%, 78.410339%)" offset="0.210938"/><stop stop-opacity="1" stop-color="rgb(75.682068%, 90.289307%, 77.75116%)" offset="0.214844"/><stop stop-opacity="1" stop-color="rgb(74.916077%, 90.153503%, 77.09198%)" offset="0.21875"/><stop stop-opacity="1" stop-color="rgb(74.150085%, 90.016174%, 76.4328%)" offset="0.222656"/><stop stop-opacity="1" stop-color="rgb(73.38562%, 89.880371%, 75.773621%)" offset="0.226563"/><stop stop-opacity="1" stop-color="rgb(72.619629%, 89.744568%, 75.114441%)" offset="0.230469"/><stop stop-opacity="1" stop-color="rgb(71.853638%, 89.608765%, 74.455261%)" offset="0.234375"/><stop stop-opacity="1" stop-color="rgb(71.087646%, 89.471436%, 73.794556%)" offset="0.238281"/><stop stop-opacity="1" stop-color="rgb(70.321655%, 89.335632%, 73.135376%)" offset="0.242188"/><stop stop-opacity="1" stop-color="rgb(69.555664%, 89.199829%, 72.476196%)" offset="0.246094"/><stop stop-opacity="1" stop-color="rgb(68.791199%, 89.064026%, 71.817017%)" offset="0.25"/><stop stop-opacity="1" stop-color="rgb(68.025208%, 88.926697%, 71.157837%)" offset="0.253906"/><stop stop-opacity="1" stop-color="rgb(67.259216%, 88.790894%, 70.498657%)" offset="0.257812"/><stop stop-opacity="1" stop-color="rgb(66.493225%, 88.65509%, 69.839478%)" offset="0.261719"/><stop stop-opacity="1" stop-color="rgb(65.72876%, 88.519287%, 69.180298%)" offset="0.265625"/><stop stop-opacity="1" stop-color="rgb(64.962769%, 88.383484%, 68.521118%)" offset="0.269531"/><stop stop-opacity="1" stop-color="rgb(64.196777%, 88.247681%, 67.861938%)" offset="0.273438"/><stop stop-opacity="1" stop-color="rgb(63.430786%, 88.110352%, 67.201233%)" offset="0.277344"/><stop stop-opacity="1" stop-color="rgb(62.666321%, 87.974548%, 66.542053%)" offset="0.28125"/><stop stop-opacity="1" stop-color="rgb(61.90033%, 87.838745%, 65.882874%)" offset="0.285156"/><stop stop-opacity="1" stop-color="rgb(61.134338%, 87.702942%, 65.223694%)" offset="0.289062"/><stop stop-opacity="1" stop-color="rgb(60.368347%, 87.565613%, 64.564514%)" offset="0.292969"/><stop stop-opacity="1" stop-color="rgb(59.603882%, 87.42981%, 63.905334%)" offset="0.296875"/><stop stop-opacity="1" stop-color="rgb(58.837891%, 87.294006%, 63.246155%)" offset="0.300781"/><stop stop-opacity="1" stop-color="rgb(58.071899%, 87.158203%, 62.586975%)" offset="0.304688"/><stop stop-opacity="1" stop-color="rgb(57.305908%, 87.0224%, 61.92627%)" offset="0.308594"/><stop stop-opacity="1" stop-color="rgb(56.541443%, 86.886597%, 61.26709%)" offset="0.3125"/><stop stop-opacity="1" stop-color="rgb(55.775452%, 86.749268%, 60.60791%)" offset="0.316406"/><stop stop-opacity="1" stop-color="rgb(55.00946%, 86.613464%, 59.94873%)" offset="0.320313"/><stop stop-opacity="1" stop-color="rgb(54.243469%, 86.477661%, 59.289551%)" offset="0.324219"/><stop stop-opacity="1" stop-color="rgb(53.477478%, 86.341858%, 58.630371%)" offset="0.328125"/><stop stop-opacity="1" stop-color="rgb(52.711487%, 86.204529%, 57.971191%)" offset="0.332031"/><stop stop-opacity="1" stop-color="rgb(51.947021%, 86.068726%, 57.312012%)" offset="0.335938"/><stop stop-opacity="1" stop-color="rgb(51.18103%, 85.932922%, 56.652832%)" offset="0.339844"/><stop stop-opacity="1" stop-color="rgb(50.415039%, 85.797119%, 55.993652%)" offset="0.34375"/><stop stop-opacity="1" stop-color="rgb(49.649048%, 85.65979%, 55.332947%)" offset="0.347656"/><stop stop-opacity="1" stop-color="rgb(48.884583%, 85.523987%, 54.673767%)" offset="0.351563"/><stop stop-opacity="1" stop-color="rgb(48.118591%, 85.388184%, 54.014587%)" offset="0.355469"/><stop stop-opacity="1" stop-color="rgb(47.3526%, 85.25238%, 53.355408%)" offset="0.359375"/><stop stop-opacity="1" stop-color="rgb(46.586609%, 85.116577%, 52.696228%)" offset="0.363281"/><stop stop-opacity="1" stop-color="rgb(45.822144%, 84.980774%, 52.037048%)" offset="0.367188"/><stop stop-opacity="1" stop-color="rgb(45.056152%, 84.843445%, 51.377869%)" offset="0.371094"/><stop stop-opacity="1" stop-color="rgb(44.290161%, 84.707642%, 50.718689%)" offset="0.375"/><stop stop-opacity="1" stop-color="rgb(43.52417%, 84.571838%, 50.057983%)" offset="0.378906"/><stop stop-opacity="1" stop-color="rgb(42.759705%, 84.436035%, 49.398804%)" offset="0.382813"/><stop stop-opacity="1" stop-color="rgb(41.993713%, 84.298706%, 48.739624%)" offset="0.386719"/><stop stop-opacity="1" stop-color="rgb(41.227722%, 84.162903%, 48.080444%)" offset="0.390625"/><stop stop-opacity="1" stop-color="rgb(40.461731%, 84.0271%, 47.421265%)" offset="0.394531"/><stop stop-opacity="1" stop-color="rgb(39.697266%, 83.891296%, 46.762085%)" offset="0.398438"/><stop stop-opacity="1" stop-color="rgb(38.931274%, 83.755493%, 46.102905%)" offset="0.402344"/><stop stop-opacity="1" stop-color="rgb(38.165283%, 83.61969%, 45.443726%)" offset="0.40625"/><stop stop-opacity="1" stop-color="rgb(37.399292%, 83.482361%, 44.784546%)" offset="0.410156"/><stop stop-opacity="1" stop-color="rgb(36.634827%, 83.346558%, 44.125366%)" offset="0.414063"/><stop stop-opacity="1" stop-color="rgb(35.868835%, 83.210754%, 43.464661%)" offset="0.417969"/><stop stop-opacity="1" stop-color="rgb(35.102844%, 83.074951%, 42.805481%)" offset="0.421875"/><stop stop-opacity="1" stop-color="rgb(34.336853%, 82.937622%, 42.146301%)" offset="0.425781"/><stop stop-opacity="1" stop-color="rgb(33.570862%, 82.801819%, 41.487122%)" offset="0.429688"/><stop stop-opacity="1" stop-color="rgb(32.804871%, 82.666016%, 40.827942%)" offset="0.433594"/><stop stop-opacity="1" stop-color="rgb(32.040405%, 82.530212%, 40.168762%)" offset="0.4375"/><stop stop-opacity="1" stop-color="rgb(31.274414%, 82.392883%, 39.509583%)" offset="0.441406"/><stop stop-opacity="1" stop-color="rgb(30.508423%, 82.25708%, 38.850403%)" offset="0.445313"/><stop stop-opacity="1" stop-color="rgb(29.742432%, 82.121277%, 38.189697%)" offset="0.449219"/><stop stop-opacity="1" stop-color="rgb(28.977966%, 81.985474%, 37.530518%)" offset="0.453125"/><stop stop-opacity="1" stop-color="rgb(28.211975%, 81.84967%, 36.871338%)" offset="0.457031"/><stop stop-opacity="1" stop-color="rgb(27.445984%, 81.713867%, 36.212158%)" offset="0.460938"/><stop stop-opacity="1" stop-color="rgb(26.679993%, 81.576538%, 35.552979%)" offset="0.464844"/><stop stop-opacity="1" stop-color="rgb(25.915527%, 81.440735%, 34.893799%)" offset="0.46875"/><stop stop-opacity="1" stop-color="rgb(25.149536%, 81.304932%, 34.234619%)" offset="0.472656"/><stop stop-opacity="1" stop-color="rgb(24.383545%, 81.169128%, 33.575439%)" offset="0.476563"/><stop stop-opacity="1" stop-color="rgb(23.617554%, 81.031799%, 32.91626%)" offset="0.480469"/><stop stop-opacity="1" stop-color="rgb(22.853088%, 80.895996%, 32.25708%)" offset="0.484375"/><stop stop-opacity="1" stop-color="rgb(22.087097%, 80.760193%, 31.596375%)" offset="0.488281"/><stop stop-opacity="1" stop-color="rgb(21.321106%, 80.62439%, 30.937195%)" offset="0.492188"/><stop stop-opacity="1" stop-color="rgb(20.658875%, 80.413818%, 30.461121%)" offset="0.496094"/><stop stop-opacity="1" stop-color="rgb(19.996643%, 80.204773%, 29.986572%)" offset="0.5"/><stop stop-opacity="1" stop-color="rgb(19.987488%, 79.533386%, 30.671692%)" offset="0.503906"/><stop stop-opacity="1" stop-color="rgb(19.979858%, 78.862%, 31.356812%)" offset="0.507813"/><stop stop-opacity="1" stop-color="rgb(19.970703%, 78.189087%, 32.040405%)" offset="0.511719"/><stop stop-opacity="1" stop-color="rgb(19.963074%, 77.5177%, 32.725525%)" offset="0.515625"/><stop stop-opacity="1" stop-color="rgb(19.953918%, 76.844788%, 33.410645%)" offset="0.519531"/><stop stop-opacity="1" stop-color="rgb(19.946289%, 76.173401%, 34.095764%)" offset="0.523438"/><stop stop-opacity="1" stop-color="rgb(19.937134%, 75.500488%, 34.779358%)" offset="0.527344"/><stop stop-opacity="1" stop-color="rgb(19.929504%, 74.829102%, 35.464478%)" offset="0.53125"/><stop stop-opacity="1" stop-color="rgb(19.920349%, 74.156189%, 36.149597%)" offset="0.535156"/><stop stop-opacity="1" stop-color="rgb(19.91272%, 73.484802%, 36.834717%)" offset="0.539063"/><stop stop-opacity="1" stop-color="rgb(19.903564%, 72.81189%, 37.519836%)" offset="0.542969"/><stop stop-opacity="1" stop-color="rgb(19.895935%, 72.140503%, 38.204956%)" offset="0.546875"/><stop stop-opacity="1" stop-color="rgb(19.88678%, 71.469116%, 38.88855%)" offset="0.550781"/><stop stop-opacity="1" stop-color="rgb(19.87915%, 70.797729%, 39.573669%)" offset="0.554688"/><stop stop-opacity="1" stop-color="rgb(19.869995%, 70.124817%, 40.258789%)" offset="0.558594"/><stop stop-opacity="1" stop-color="rgb(19.86084%, 69.45343%, 40.943909%)" offset="0.5625"/><stop stop-opacity="1" stop-color="rgb(19.851685%, 68.780518%, 41.629028%)" offset="0.566406"/><stop stop-opacity="1" stop-color="rgb(19.844055%, 68.109131%, 42.314148%)" offset="0.570313"/><stop stop-opacity="1" stop-color="rgb(19.8349%, 67.436218%, 42.997742%)" offset="0.574219"/><stop stop-opacity="1" stop-color="rgb(19.827271%, 66.764832%, 43.682861%)" offset="0.578125"/><stop stop-opacity="1" stop-color="rgb(19.818115%, 66.091919%, 44.367981%)" offset="0.582031"/><stop stop-opacity="1" stop-color="rgb(19.810486%, 65.420532%, 45.053101%)" offset="0.585938"/><stop stop-opacity="1" stop-color="rgb(19.801331%, 64.74762%, 45.736694%)" offset="0.589844"/><stop stop-opacity="1" stop-color="rgb(19.793701%, 64.076233%, 46.421814%)" offset="0.59375"/><stop stop-opacity="1" stop-color="rgb(19.784546%, 63.40332%, 47.106934%)" offset="0.597656"/><stop stop-opacity="1" stop-color="rgb(19.776917%, 62.731934%, 47.792053%)" offset="0.601563"/><stop stop-opacity="1" stop-color="rgb(19.767761%, 62.060547%, 48.477173%)" offset="0.605469"/><stop stop-opacity="1" stop-color="rgb(19.760132%, 61.38916%, 49.162292%)" offset="0.609375"/><stop stop-opacity="1" stop-color="rgb(19.750977%, 60.716248%, 49.845886%)" offset="0.613281"/><stop stop-opacity="1" stop-color="rgb(19.743347%, 60.044861%, 50.531006%)" offset="0.617188"/><stop stop-opacity="1" stop-color="rgb(19.734192%, 59.371948%, 51.216125%)" offset="0.621094"/><stop stop-opacity="1" stop-color="rgb(19.726562%, 58.700562%, 51.901245%)" offset="0.625"/><stop stop-opacity="1" stop-color="rgb(19.717407%, 58.027649%, 52.586365%)" offset="0.628906"/><stop stop-opacity="1" stop-color="rgb(19.709778%, 57.356262%, 53.271484%)" offset="0.632813"/><stop stop-opacity="1" stop-color="rgb(19.700623%, 56.68335%, 53.955078%)" offset="0.636719"/><stop stop-opacity="1" stop-color="rgb(19.692993%, 56.011963%, 54.640198%)" offset="0.640625"/><stop stop-opacity="1" stop-color="rgb(19.683838%, 55.33905%, 55.325317%)" offset="0.644531"/><stop stop-opacity="1" stop-color="rgb(19.674683%, 54.667664%, 56.010437%)" offset="0.648438"/><stop stop-opacity="1" stop-color="rgb(19.665527%, 53.994751%, 56.695557%)" offset="0.652344"/><stop stop-opacity="1" stop-color="rgb(19.657898%, 53.323364%, 57.380676%)" offset="0.65625"/><stop stop-opacity="1" stop-color="rgb(19.648743%, 52.651978%, 58.06427%)" offset="0.660156"/><stop stop-opacity="1" stop-color="rgb(19.641113%, 51.980591%, 58.74939%)" offset="0.664062"/><stop stop-opacity="1" stop-color="rgb(19.631958%, 51.307678%, 59.434509%)" offset="0.667969"/><stop stop-opacity="1" stop-color="rgb(19.624329%, 50.636292%, 60.119629%)" offset="0.671875"/><stop stop-opacity="1" stop-color="rgb(19.615173%, 49.963379%, 60.803223%)" offset="0.675781"/><stop stop-opacity="1" stop-color="rgb(19.607544%, 49.291992%, 61.488342%)" offset="0.679688"/><stop stop-opacity="1" stop-color="rgb(19.598389%, 48.61908%, 62.173462%)" offset="0.683594"/><stop stop-opacity="1" stop-color="rgb(19.590759%, 47.947693%, 62.858582%)" offset="0.6875"/><stop stop-opacity="1" stop-color="rgb(19.581604%, 47.27478%, 63.543701%)" offset="0.691406"/><stop stop-opacity="1" stop-color="rgb(19.573975%, 46.603394%, 64.228821%)" offset="0.695312"/><stop stop-opacity="1" stop-color="rgb(19.564819%, 45.930481%, 64.912415%)" offset="0.699219"/><stop stop-opacity="1" stop-color="rgb(19.55719%, 45.259094%, 65.597534%)" offset="0.703125"/><stop stop-opacity="1" stop-color="rgb(19.548035%, 44.586182%, 66.282654%)" offset="0.707031"/><stop stop-opacity="1" stop-color="rgb(19.540405%, 43.914795%, 66.967773%)" offset="0.710938"/><stop stop-opacity="1" stop-color="rgb(19.53125%, 43.243408%, 67.652893%)" offset="0.714844"/><stop stop-opacity="1" stop-color="rgb(19.523621%, 42.572021%, 68.338013%)" offset="0.71875"/><stop stop-opacity="1" stop-color="rgb(19.514465%, 41.899109%, 69.021606%)" offset="0.722656"/><stop stop-opacity="1" stop-color="rgb(19.506836%, 41.227722%, 69.706726%)" offset="0.726563"/><stop stop-opacity="1" stop-color="rgb(19.497681%, 40.55481%, 70.391846%)" offset="0.730469"/><stop stop-opacity="1" stop-color="rgb(19.490051%, 39.883423%, 71.076965%)" offset="0.734375"/><stop stop-opacity="1" stop-color="rgb(19.480896%, 39.21051%, 71.760559%)" offset="0.738281"/><stop stop-opacity="1" stop-color="rgb(19.471741%, 38.539124%, 72.445679%)" offset="0.742188"/><stop stop-opacity="1" stop-color="rgb(19.462585%, 37.866211%, 73.130798%)" offset="0.746094"/><stop stop-opacity="1" stop-color="rgb(19.454956%, 37.194824%, 73.815918%)" offset="0.75"/><stop stop-opacity="1" stop-color="rgb(19.445801%, 36.521912%, 74.501038%)" offset="0.753906"/><stop stop-opacity="1" stop-color="rgb(19.438171%, 35.850525%, 75.186157%)" offset="0.757813"/><stop stop-opacity="1" stop-color="rgb(19.429016%, 35.177612%, 75.869751%)" offset="0.761719"/><stop stop-opacity="1" stop-color="rgb(19.421387%, 34.506226%, 76.554871%)" offset="0.765625"/><stop stop-opacity="1" stop-color="rgb(19.412231%, 33.834839%, 77.23999%)" offset="0.769531"/><stop stop-opacity="1" stop-color="rgb(19.404602%, 33.163452%, 77.92511%)" offset="0.773438"/><stop stop-opacity="1" stop-color="rgb(19.395447%, 32.49054%, 78.610229%)" offset="0.777344"/><stop stop-opacity="1" stop-color="rgb(19.387817%, 31.819153%, 79.295349%)" offset="0.78125"/><stop stop-opacity="1" stop-color="rgb(19.378662%, 31.14624%, 79.978943%)" offset="0.785156"/><stop stop-opacity="1" stop-color="rgb(19.371033%, 30.474854%, 80.664062%)" offset="0.789063"/><stop stop-opacity="1" stop-color="rgb(19.361877%, 29.801941%, 81.349182%)" offset="0.792969"/><stop stop-opacity="1" stop-color="rgb(19.354248%, 29.130554%, 82.034302%)" offset="0.796875"/><stop stop-opacity="1" stop-color="rgb(19.345093%, 28.457642%, 82.717896%)" offset="0.800781"/><stop stop-opacity="1" stop-color="rgb(19.337463%, 27.786255%, 83.403015%)" offset="0.804688"/><stop stop-opacity="1" stop-color="rgb(19.328308%, 27.113342%, 84.088135%)" offset="0.808594"/><stop stop-opacity="1" stop-color="rgb(19.320679%, 26.441956%, 84.773254%)" offset="0.8125"/><stop stop-opacity="1" stop-color="rgb(19.311523%, 25.769043%, 85.458374%)" offset="0.816406"/><stop stop-opacity="1" stop-color="rgb(19.303894%, 25.097656%, 86.143494%)" offset="0.820313"/><stop stop-opacity="1" stop-color="rgb(19.294739%, 24.42627%, 86.827087%)" offset="0.824219"/><stop stop-opacity="1" stop-color="rgb(19.285583%, 23.754883%, 87.512207%)" offset="0.828125"/><stop stop-opacity="1" stop-color="rgb(19.276428%, 23.08197%, 88.197327%)" offset="0.832031"/><stop stop-opacity="1" stop-color="rgb(19.268799%, 22.410583%, 88.882446%)" offset="0.835938"/><stop stop-opacity="1" stop-color="rgb(19.259644%, 21.737671%, 89.567566%)" offset="0.839844"/><stop stop-opacity="1" stop-color="rgb(19.252014%, 21.066284%, 90.252686%)" offset="0.84375"/><stop stop-opacity="1" stop-color="rgb(19.242859%, 20.393372%, 90.936279%)" offset="0.847656"/><stop stop-opacity="1" stop-color="rgb(19.235229%, 19.721985%, 91.621399%)" offset="0.851563"/><stop stop-opacity="1" stop-color="rgb(19.2276%, 19.075012%, 92.280579%)" offset="0.855469"/><stop stop-opacity="1" stop-color="rgb(19.219971%, 18.429565%, 92.939758%)" offset="0.859375"/><stop stop-opacity="1" stop-color="rgb(19.219971%, 18.429565%, 92.939758%)" offset="0.875"/><stop stop-opacity="1" stop-color="rgb(19.219971%, 18.429565%, 92.939758%)" offset="1"/></linearGradient><clipPath id="bff4b5e09c"><rect x="0" width="896" y="0" height="395"/></clipPath><clipPath id="a8b8d19fa3"><path d="M 0.789062 0 L 895.972656 0 L 895.972656 394.5 L 0.789062 394.5 Z M 0.789062 0 " clip-rule="nonzero"/></clipPath><clipPath id="923ba4fec2"><rect x="0" width="896" y="0" height="395"/></clipPath><clipPath id="97ff143b29"><rect x="0" width="896" y="0" height="395"/></clipPath><mask id="ac84ec83a3"><g filter="url(#7c0c1dc133)"><g transform="matrix(1, 0, 0, 1, 0.000000000000000111, -0.000000000000055774)"><g clip-path="url(#97ff143b29)"><g clip-path="url(#a8b8d19fa3)"><g transform="matrix(1, 0, 0, 1, 0.000000000000000111, -0.000000000000055774)"><g clip-path="url(#923ba4fec2)"><g fill="#000000" fill-opacity="1"><g transform="translate(124.892169, 265.08529)"><g><path d="M 126.3125 -42.390625 C 126.3125 -35.429688 124.644531 -29.125 121.3125 -23.46875 C 117.976562 -17.820312 113.59375 -13.003906 108.15625 -9.015625 C 102.71875 -5.035156 96.664062 -1.992188 90 0.109375 C 83.332031 2.210938 76.59375 3.265625 69.78125 3.265625 C 63.257812 3.265625 56.59375 2.285156 49.78125 0.328125 C 42.96875 -1.628906 36.660156 -4.597656 30.859375 -8.578125 C 25.066406 -12.566406 20.394531 -17.640625 16.84375 -23.796875 C 13.289062 -29.960938 11.515625 -37.320312 11.515625 -45.875 L 11.515625 -97.1875 C 11.515625 -105.726562 13.289062 -113.078125 16.84375 -119.234375 C 20.394531 -125.398438 25.066406 -130.472656 30.859375 -134.453125 C 36.660156 -138.441406 42.96875 -141.414062 49.78125 -143.375 C 56.59375 -145.332031 63.257812 -146.3125 69.78125 -146.3125 C 78.769531 -146.3125 87.394531 -144.789062 95.65625 -141.75 C 103.914062 -138.707031 110.875 -134.140625 116.53125 -128.046875 C 122.1875 -121.960938 125.445312 -114.28125 126.3125 -105 C 126.3125 -102.394531 125.800781 -100.691406 124.78125 -99.890625 C 123.769531 -99.097656 122.035156 -98.703125 119.578125 -98.703125 L 98.703125 -98.703125 C 96.378906 -98.703125 94.925781 -99.5 94.34375 -101.09375 C 93.769531 -102.6875 93.050781 -104.132812 92.1875 -105.4375 C 89.863281 -109.0625 87.035156 -111.707031 83.703125 -113.375 C 80.367188 -115.039062 75.726562 -115.875 69.78125 -115.875 C 62.6875 -115.875 56.890625 -113.953125 52.390625 -110.109375 C 47.898438 -106.273438 45.65625 -100.953125 45.65625 -94.140625 L 45.65625 -48.921875 C 45.65625 -41.960938 47.898438 -36.597656 52.390625 -32.828125 C 56.890625 -29.054688 62.6875 -27.171875 69.78125 -27.171875 C 75.726562 -27.171875 80.800781 -28.328125 85 -30.640625 C 89.207031 -32.960938 91.742188 -36.734375 92.609375 -41.953125 C 92.898438 -44.128906 93.367188 -45.976562 94.015625 -47.5 C 94.671875 -49.019531 96.160156 -49.78125 98.484375 -49.78125 L 119.796875 -49.78125 C 124.140625 -49.78125 126.3125 -47.316406 126.3125 -42.390625 Z M 126.3125 -42.390625 "/></g></g></g><g fill="#000000" fill-opacity="1"><g transform="translate(260.768468, 265.08529)"><g><path d="M 133.265625 -6.953125 C 134.285156 -5.503906 134.503906 -3.984375 133.921875 -2.390625 C 133.335938 -0.796875 132.035156 0 130.015625 0 L 104.359375 0 C 101.742188 0 99.675781 -0.503906 98.15625 -1.515625 C 96.632812 -2.535156 95.078125 -4.203125 93.484375 -6.515625 L 70 -41.53125 C 68.988281 -42.832031 68.335938 -44.242188 68.046875 -45.765625 C 67.753906 -47.285156 67.609375 -49.566406 67.609375 -52.609375 L 67.609375 -70 C 67.609375 -72.03125 68.039062 -73.585938 68.90625 -74.671875 C 69.78125 -75.765625 71.453125 -76.3125 73.921875 -76.3125 L 78.265625 -76.3125 C 83.628906 -76.3125 88.410156 -77.976562 92.609375 -81.3125 C 96.816406 -84.644531 98.921875 -88.847656 98.921875 -93.921875 C 98.921875 -99.566406 97 -104.054688 93.15625 -107.390625 C 89.3125 -110.734375 84.566406 -112.40625 78.921875 -112.40625 L 50 -112.40625 L 50 -6.3125 C 50 -3.84375 49.457031 -2.171875 48.375 -1.296875 C 47.289062 -0.429688 45.734375 0 43.703125 0 L 22.171875 0 C 20.285156 0 18.800781 -0.429688 17.71875 -1.296875 C 16.632812 -2.171875 16.09375 -3.84375 16.09375 -6.3125 L 16.09375 -136.53125 C 16.09375 -138.5625 16.488281 -140.117188 17.28125 -141.203125 C 18.082031 -142.285156 19.710938 -142.828125 22.171875 -142.828125 L 76.96875 -142.828125 C 84.9375 -142.828125 91.53125 -142.320312 96.75 -141.3125 C 101.96875 -140.300781 106.421875 -138.742188 110.109375 -136.640625 C 113.804688 -134.535156 117.175781 -131.960938 120.21875 -128.921875 C 124.28125 -125.003906 127.394531 -120.070312 129.5625 -114.125 C 131.738281 -108.1875 132.828125 -101.742188 132.828125 -94.796875 C 132.828125 -87.253906 131.234375 -80.507812 128.046875 -74.5625 C 124.859375 -68.625 120.945312 -63.695312 116.3125 -59.78125 C 111.675781 -55.875 107.109375 -53.125 102.609375 -51.53125 Z M 133.265625 -6.953125 "/></g></g></g><g fill="#000000" fill-opacity="1"><g transform="translate(404.036435, 265.08529)"><g><path d="M 125.015625 -143.046875 C 127.035156 -143.046875 128.265625 -142.320312 128.703125 -140.875 C 129.140625 -139.425781 129.066406 -138.125 128.484375 -136.96875 L 83.703125 -53.703125 L 83.703125 -6.3125 C 83.703125 -3.84375 83.15625 -2.171875 82.0625 -1.296875 C 80.976562 -0.429688 79.421875 0 77.390625 0 L 55.65625 0 C 53.625 0 52.0625 -0.429688 50.96875 -1.296875 C 49.882812 -2.171875 49.34375 -3.84375 49.34375 -6.3125 L 49.34375 -53.703125 L 2.828125 -136.96875 C 2.242188 -138.125 2.171875 -139.425781 2.609375 -140.875 C 3.046875 -142.320312 4.28125 -143.046875 6.3125 -143.046875 L 31.3125 -143.046875 C 33.769531 -143.046875 35.722656 -142.679688 37.171875 -141.953125 C 38.617188 -141.234375 40.070312 -139.425781 41.53125 -136.53125 L 66.96875 -89.78125 L 91.53125 -136.53125 C 92.976562 -139.425781 94.390625 -141.234375 95.765625 -141.953125 C 97.140625 -142.679688 99.0625 -143.046875 101.53125 -143.046875 Z M 125.015625 -143.046875 "/></g></g></g><g fill="#000000" fill-opacity="1"><g transform="translate(533.825406, 265.08529)"><g><path d="M 78.265625 -29.78125 C 80.734375 -29.78125 82.398438 -29.238281 83.265625 -28.15625 C 84.140625 -27.070312 84.578125 -25.515625 84.578125 -23.484375 L 84.578125 -6.3125 C 84.578125 -4.425781 84.140625 -2.898438 83.265625 -1.734375 C 82.398438 -0.578125 80.734375 0 78.265625 0 L 16.734375 0 C 14.273438 0 12.609375 -0.578125 11.734375 -1.734375 C 10.867188 -2.898438 10.4375 -4.425781 10.4375 -6.3125 L 10.4375 -23.484375 C 10.4375 -25.515625 10.867188 -27.070312 11.734375 -28.15625 C 12.609375 -29.238281 14.273438 -29.78125 16.734375 -29.78125 L 30.4375 -29.78125 L 30.4375 -112.828125 L 17.171875 -112.828125 C 14.710938 -112.828125 13.046875 -113.40625 12.171875 -114.5625 C 11.304688 -115.726562 10.875 -117.253906 10.875 -119.140625 L 10.875 -136.75 C 10.875 -138.78125 11.304688 -140.335938 12.171875 -141.421875 C 13.046875 -142.503906 14.710938 -143.046875 17.171875 -143.046875 L 77.609375 -143.046875 C 80.078125 -143.046875 81.742188 -142.503906 82.609375 -141.421875 C 83.484375 -140.335938 83.921875 -138.78125 83.921875 -136.75 L 83.921875 -119.140625 C 83.921875 -117.253906 83.484375 -115.726562 82.609375 -114.5625 C 81.742188 -113.40625 80.078125 -112.828125 77.609375 -112.828125 L 64.5625 -112.828125 L 64.5625 -29.78125 Z M 78.265625 -29.78125 "/></g></g></g><g fill="#000000" fill-opacity="1"><g transform="translate(628.830109, 265.08529)"><g><path d="M 139.140625 -6.09375 C 139.722656 -4.78125 139.867188 -3.4375 139.578125 -2.0625 C 139.285156 -0.6875 137.90625 0 135.4375 0 L 112.609375 0 C 110.296875 0 108.554688 -0.429688 107.390625 -1.296875 C 106.234375 -2.171875 105.222656 -3.910156 104.359375 -6.515625 L 98.265625 -23.703125 L 45 -23.703125 L 38.921875 -6.515625 C 38.046875 -3.910156 37.0625 -2.171875 35.96875 -1.296875 C 34.882812 -0.429688 33.113281 0 30.65625 0 L 7.828125 0 C 5.503906 0 4.160156 -0.6875 3.796875 -2.0625 C 3.441406 -3.4375 3.550781 -4.78125 4.125 -6.09375 L 52.390625 -136.3125 C 53.265625 -138.632812 54.390625 -140.335938 55.765625 -141.421875 C 57.140625 -142.503906 58.988281 -143.046875 61.3125 -143.046875 L 82.171875 -143.046875 C 84.640625 -143.046875 86.488281 -142.503906 87.71875 -141.421875 C 88.957031 -140.335938 90.082031 -138.632812 91.09375 -136.3125 Z M 71.75 -102.1875 L 55.4375 -54.140625 L 88.046875 -54.140625 Z M 71.75 -102.1875 "/></g></g></g></g></g></g></g></g></g></mask><clipPath id="e1f8e9f85d"><path d="M 0.789062 0 L 895.972656 0 L 895.972656 394.5 L 0.789062 394.5 Z M 0.789062 0 " clip-rule="nonzero"/></clipPath><clipPath id="6847d396b6"><rect x="0" width="896" y="0" height="395"/></clipPath><clipPath id="e6b7235362"><rect x="0" width="896" y="0" height="395"/></clipPath><clipPath id="f7d86a5b7c"><rect x="0" width="896" y="0" height="395"/></clipPath><clipPath id="dbef134b5c"><rect x="0" width="896" y="0" height="395"/></clipPath></defs><g clip-path="url(#e0757a37c0)"><g transform="matrix(1, 0, 0, 1, 0.000000000000000111, -0.000000000000055774)"><g clip-path="url(#dbef134b5c)"><g transform="matrix(1, 0, 0, 1, 162, 276)"><g clip-path="url(#3c766a4cfc)"><g fill="#e6e6e6" fill-opacity="1"><g transform="translate(1.725824, 39.713504)"><g><path d="M 21.8125 -27.953125 L 24.796875 -27.953125 L 24.796875 0 L 21.8125 0 L 21.8125 -12.484375 L 6.390625 -12.484375 L 6.390625 0 L 3.40625 0 L 3.40625 -27.953125 L 6.390625 -27.953125 L 6.390625 -15.46875 L 21.8125 -15.46875 Z M 21.8125 -27.953125 "/></g></g></g><g fill="#e6e6e6" fill-opacity="1"><g transform="translate(45.652764, 39.713504)"><g><path d="M 13.75 0.375 C 11.726562 0.375 9.925781 -0.0351562 8.34375 -0.859375 C 6.757812 -1.679688 5.515625 -2.816406 4.609375 -4.265625 C 3.710938 -5.710938 3.265625 -7.351562 3.265625 -9.1875 L 3.265625 -27.953125 L 6.25 -27.953125 L 6.25 -9.640625 C 6.25 -8.304688 6.570312 -7.101562 7.21875 -6.03125 C 7.875 -4.957031 8.769531 -4.117188 9.90625 -3.515625 C 11.039062 -2.910156 12.320312 -2.609375 13.75 -2.609375 C 15.207031 -2.609375 16.503906 -2.910156 17.640625 -3.515625 C 18.773438 -4.117188 19.664062 -4.957031 20.3125 -6.03125 C 20.96875 -7.101562 21.296875 -8.304688 21.296875 -9.640625 L 21.296875 -27.953125 L 24.28125 -27.953125 L 24.28125 -9.1875 C 24.28125 -7.351562 23.828125 -5.710938 22.921875 -4.265625 C 22.023438 -2.816406 20.785156 -1.679688 19.203125 -0.859375 C 17.617188 -0.0351562 15.800781 0.375 13.75 0.375 Z M 13.75 0.375 "/></g></g></g><g fill="#e6e6e6" fill-opacity="1"><g transform="translate(88.927382, 39.713504)"><g><path d="M 17.203125 -14.171875 C 18.660156 -13.671875 19.851562 -12.835938 20.78125 -11.671875 C 21.71875 -10.503906 22.1875 -9.066406 22.1875 -7.359375 C 22.1875 -5.929688 21.84375 -4.65625 21.15625 -3.53125 C 20.46875 -2.414062 19.550781 -1.546875 18.40625 -0.921875 C 17.257812 -0.304688 15.972656 0 14.546875 0 L 3.40625 0 L 3.40625 -27.953125 L 13.5625 -27.953125 C 14.988281 -27.953125 16.285156 -27.632812 17.453125 -27 C 18.617188 -26.363281 19.550781 -25.484375 20.25 -24.359375 C 20.945312 -23.242188 21.296875 -21.957031 21.296875 -20.5 C 21.296875 -19.007812 20.921875 -17.71875 20.171875 -16.625 C 19.429688 -15.539062 18.441406 -14.722656 17.203125 -14.171875 Z M 18.3125 -20.265625 C 18.3125 -21.640625 17.8125 -22.769531 16.8125 -23.65625 C 15.820312 -24.539062 14.628906 -24.984375 13.234375 -24.984375 L 6.34375 -24.984375 L 6.34375 -15.421875 L 13.234375 -15.421875 C 14.628906 -15.421875 15.820312 -15.882812 16.8125 -16.8125 C 17.8125 -17.75 18.3125 -18.898438 18.3125 -20.265625 Z M 14.171875 -2.984375 C 15.535156 -2.984375 16.710938 -3.425781 17.703125 -4.3125 C 18.703125 -5.195312 19.203125 -6.320312 19.203125 -7.6875 C 19.203125 -9.050781 18.703125 -10.195312 17.703125 -11.125 C 16.710938 -12.0625 15.535156 -12.53125 14.171875 -12.53125 L 6.34375 -12.53125 L 6.34375 -2.984375 Z M 14.171875 -2.984375 "/></g></g></g><g fill="#e6e6e6" fill-opacity="1"><g transform="translate(129.033596, 39.713504)"><g/></g></g><g fill="#e6e6e6" fill-opacity="1"><g transform="translate(156.000274, 39.713504)"><g><path d="M 18.921875 -25.078125 L 6.625 -25.078125 L 6.625 -15.421875 L 17.328125 -15.421875 L 17.328125 -12.53125 L 6.625 -12.53125 L 6.625 -2.890625 L 18.921875 -2.890625 L 18.921875 0 L 3.640625 0 L 3.640625 -27.953125 L 18.921875 -27.953125 Z M 18.921875 -25.078125 "/></g></g></g><g fill="#e6e6e6" fill-opacity="1"><g transform="translate(193.450636, 39.713504)"><g><path d="M 10.4375 0.375 C 8.351562 0.375 6.492188 -0.144531 4.859375 -1.1875 C 3.234375 -2.226562 2.0625 -3.601562 1.34375 -5.3125 L 4.046875 -6.890625 C 4.546875 -5.617188 5.347656 -4.585938 6.453125 -3.796875 C 7.554688 -3.003906 8.898438 -2.609375 10.484375 -2.609375 C 12.035156 -2.609375 13.351562 -3.007812 14.4375 -3.8125 C 15.53125 -4.625 16.078125 -5.773438 16.078125 -7.265625 C 16.078125 -8.421875 15.75 -9.363281 15.09375 -10.09375 C 14.445312 -10.820312 13.601562 -11.429688 12.5625 -11.921875 C 11.519531 -12.421875 10.421875 -12.894531 9.265625 -13.34375 C 8.117188 -13.800781 7.023438 -14.335938 5.984375 -14.953125 C 4.941406 -15.578125 4.09375 -16.363281 3.4375 -17.3125 C 2.789062 -18.257812 2.46875 -19.476562 2.46875 -20.96875 C 2.46875 -22.488281 2.816406 -23.800781 3.515625 -24.90625 C 4.210938 -26.007812 5.148438 -26.851562 6.328125 -27.4375 C 7.515625 -28.03125 8.820312 -28.328125 10.25 -28.328125 C 11.863281 -28.328125 13.316406 -27.992188 14.609375 -27.328125 C 15.898438 -26.660156 16.929688 -25.832031 17.703125 -24.84375 L 15.375 -22.875 C 14.226562 -24.519531 12.550781 -25.34375 10.34375 -25.34375 C 9.039062 -25.34375 7.898438 -25 6.921875 -24.3125 C 5.941406 -23.632812 5.453125 -22.597656 5.453125 -21.203125 C 5.453125 -20.085938 5.773438 -19.1875 6.421875 -18.5 C 7.078125 -17.8125 7.925781 -17.226562 8.96875 -16.75 C 10.007812 -16.269531 11.101562 -15.800781 12.25 -15.34375 C 13.40625 -14.894531 14.503906 -14.351562 15.546875 -13.71875 C 16.585938 -13.082031 17.429688 -12.257812 18.078125 -11.25 C 18.734375 -10.238281 19.0625 -8.941406 19.0625 -7.359375 C 19.0625 -5.742188 18.671875 -4.351562 17.890625 -3.1875 C 17.117188 -2.019531 16.078125 -1.132812 14.765625 -0.53125 C 13.460938 0.0703125 12.019531 0.375 10.4375 0.375 Z M 10.4375 0.375 "/></g></g></g><g fill="#e6e6e6" fill-opacity="1"><g transform="translate(229.596356, 39.713504)"><g><path d="M 18.875 -27.953125 L 18.875 -24.984375 L 11.140625 -24.984375 L 11.140625 0 L 8.15625 0 L 8.15625 -24.984375 L 0.421875 -24.984375 L 0.421875 -27.953125 Z M 18.875 -27.953125 "/></g></g></g><g fill="#e6e6e6" fill-opacity="1"><g transform="translate(264.623814, 39.713504)"><g><path d="M 14.71875 -12.765625 L 22.96875 0 L 19.578125 0 L 11.65625 -12.625 L 6.390625 -12.625 L 6.390625 0 L 3.40625 0 L 3.40625 -27.953125 L 13.421875 -27.953125 C 14.847656 -27.953125 16.148438 -27.601562 17.328125 -26.90625 C 18.515625 -26.207031 19.457031 -25.269531 20.15625 -24.09375 C 20.851562 -22.914062 21.203125 -21.59375 21.203125 -20.125 C 21.203125 -18.882812 20.914062 -17.734375 20.34375 -16.671875 C 19.769531 -15.617188 19 -14.75 18.03125 -14.0625 C 17.070312 -13.382812 15.96875 -12.953125 14.71875 -12.765625 Z M 6.390625 -15.46875 L 13.234375 -15.46875 C 14.660156 -15.46875 15.847656 -15.898438 16.796875 -16.765625 C 17.742188 -17.640625 18.21875 -18.789062 18.21875 -20.21875 C 18.21875 -21.625 17.734375 -22.769531 16.765625 -23.65625 C 15.804688 -24.539062 14.628906 -24.984375 13.234375 -24.984375 L 6.390625 -24.984375 Z M 6.390625 -15.46875 "/></g></g></g><g fill="#e6e6e6" fill-opacity="1"><g transform="translate(303.751557, 39.713504)"><g><path d="M 20.265625 0 L 17.984375 -6.53125 L 5.546875 -6.53125 L 3.265625 0 L 0 0 L 10.109375 -27.953125 L 13.421875 -27.953125 L 23.53125 0 Z M 6.53125 -9.359375 L 17.015625 -9.359375 L 11.796875 -24.421875 Z M 6.53125 -9.359375 "/></g></g></g><g fill="#e6e6e6" fill-opacity="1"><g transform="translate(343.019092, 39.713504)"><g><path d="M 18.875 -27.953125 L 18.875 -24.984375 L 11.140625 -24.984375 L 11.140625 0 L 8.15625 0 L 8.15625 -24.984375 L 0.421875 -24.984375 L 0.421875 -27.953125 Z M 18.875 -27.953125 "/></g></g></g><g fill="#e6e6e6" fill-opacity="1"><g transform="translate(378.04655, 39.713504)"><g><path d="M 17.5625 -37.28125 L 12.0625 -30.390625 L 10.109375 -30.390625 L 14.21875 -37.28125 Z M 18.921875 -25.078125 L 6.625 -25.078125 L 6.625 -15.421875 L 17.328125 -15.421875 L 17.328125 -12.53125 L 6.625 -12.53125 L 6.625 -2.890625 L 18.921875 -2.890625 L 18.921875 0 L 3.640625 0 L 3.640625 -27.953125 L 18.921875 -27.953125 Z M 18.921875 -25.078125 "/></g></g></g><g fill="#e6e6e6" fill-opacity="1"><g transform="translate(415.496912, 39.713504)"><g><path d="M 16.734375 -14.8125 L 31.125 -14.8125 L 31.125 -13.984375 C 31.125 -11.992188 30.75 -10.132812 30 -8.40625 C 29.257812 -6.6875 28.226562 -5.164062 26.90625 -3.84375 C 25.59375 -2.519531 24.070312 -1.484375 22.34375 -0.734375 C 20.625 0.00390625 18.769531 0.375 16.78125 0.375 C 14.789062 0.375 12.925781 0.00390625 11.1875 -0.734375 C 9.445312 -1.484375 7.921875 -2.519531 6.609375 -3.84375 C 5.304688 -5.164062 4.28125 -6.6875 3.53125 -8.40625 C 2.789062 -10.132812 2.421875 -11.992188 2.421875 -13.984375 C 2.421875 -15.972656 2.789062 -17.828125 3.53125 -19.546875 C 4.28125 -21.273438 5.304688 -22.796875 6.609375 -24.109375 C 7.921875 -25.429688 9.445312 -26.460938 11.1875 -27.203125 C 12.925781 -27.953125 14.789062 -28.328125 16.78125 -28.328125 C 19.445312 -28.328125 21.882812 -27.660156 24.09375 -26.328125 C 26.300781 -24.992188 28.007812 -23.238281 29.21875 -21.0625 L 26.65625 -19.625 C 25.695312 -21.363281 24.335938 -22.75 22.578125 -23.78125 C 20.828125 -24.820312 18.894531 -25.34375 16.78125 -25.34375 C 14.695312 -25.34375 12.789062 -24.835938 11.0625 -23.828125 C 9.34375 -22.828125 7.96875 -21.460938 6.9375 -19.734375 C 5.914062 -18.015625 5.40625 -16.097656 5.40625 -13.984375 C 5.40625 -11.867188 5.914062 -9.945312 6.9375 -8.21875 C 7.96875 -6.5 9.34375 -5.132812 11.0625 -4.125 C 12.789062 -3.113281 14.695312 -2.609375 16.78125 -2.609375 C 18.675781 -2.609375 20.414062 -3.019531 22 -3.84375 C 23.582031 -4.664062 24.898438 -5.78125 25.953125 -7.1875 C 27.015625 -8.601562 27.679688 -10.210938 27.953125 -12.015625 L 16.734375 -12.015625 Z M 16.734375 -14.8125 "/></g></g></g><g fill="#e6e6e6" fill-opacity="1"><g transform="translate(464.735577, 39.713504)"><g><path d="M 3.640625 0 L 3.640625 -27.953125 L 6.625 -27.953125 L 6.625 0 Z M 3.640625 0 "/></g></g></g><g fill="#e6e6e6" fill-opacity="1"><g transform="translate(490.677172, 39.713504)"><g><path d="M 16.640625 0.375 C 14.648438 0.375 12.789062 0.00390625 11.0625 -0.734375 C 9.34375 -1.484375 7.820312 -2.519531 6.5 -3.84375 C 5.175781 -5.164062 4.140625 -6.6875 3.390625 -8.40625 C 2.648438 -10.132812 2.28125 -11.992188 2.28125 -13.984375 C 2.28125 -15.972656 2.648438 -17.828125 3.390625 -19.546875 C 4.140625 -21.273438 5.175781 -22.796875 6.5 -24.109375 C 7.820312 -25.429688 9.34375 -26.460938 11.0625 -27.203125 C 12.789062 -27.953125 14.648438 -28.328125 16.640625 -28.328125 C 19.304688 -28.328125 21.742188 -27.660156 23.953125 -26.328125 C 26.160156 -24.992188 27.882812 -23.238281 29.125 -21.0625 L 26.5625 -19.625 C 25.601562 -21.363281 24.242188 -22.75 22.484375 -23.78125 C 20.734375 -24.820312 18.785156 -25.34375 16.640625 -25.34375 C 14.554688 -25.34375 12.648438 -24.835938 10.921875 -23.828125 C 9.203125 -22.828125 7.828125 -21.460938 6.796875 -19.734375 C 5.773438 -18.015625 5.265625 -16.097656 5.265625 -13.984375 C 5.265625 -11.867188 5.773438 -9.945312 6.796875 -8.21875 C 7.828125 -6.5 9.203125 -5.132812 10.921875 -4.125 C 12.648438 -3.113281 14.554688 -2.609375 16.640625 -2.609375 C 18.785156 -2.609375 20.734375 -3.132812 22.484375 -4.1875 C 24.242188 -5.25 25.601562 -6.632812 26.5625 -8.34375 L 29.125 -6.890625 C 27.882812 -4.722656 26.160156 -2.96875 23.953125 -1.625 C 21.742188 -0.289062 19.304688 0.375 16.640625 0.375 Z M 16.640625 0.375 "/></g></g></g><g fill="#e6e6e6" fill-opacity="1"><g transform="translate(537.073627, 39.713504)"><g><path d="M 16.640625 0.375 C 14.648438 0.375 12.789062 0.00390625 11.0625 -0.734375 C 9.34375 -1.484375 7.820312 -2.519531 6.5 -3.84375 C 5.175781 -5.164062 4.140625 -6.6875 3.390625 -8.40625 C 2.648438 -10.132812 2.28125 -11.992188 2.28125 -13.984375 C 2.28125 -15.972656 2.648438 -17.828125 3.390625 -19.546875 C 4.140625 -21.273438 5.175781 -22.796875 6.5 -24.109375 C 7.820312 -25.429688 9.34375 -26.460938 11.0625 -27.203125 C 12.789062 -27.953125 14.648438 -28.328125 16.640625 -28.328125 C 18.628906 -28.328125 20.492188 -27.953125 22.234375 -27.203125 C 23.972656 -26.460938 25.492188 -25.429688 26.796875 -24.109375 C 28.097656 -22.796875 29.117188 -21.273438 29.859375 -19.546875 C 30.609375 -17.828125 30.984375 -15.972656 30.984375 -13.984375 C 30.984375 -11.992188 30.609375 -10.132812 29.859375 -8.40625 C 29.117188 -6.6875 28.097656 -5.164062 26.796875 -3.84375 C 25.492188 -2.519531 23.972656 -1.484375 22.234375 -0.734375 C 20.492188 0.00390625 18.628906 0.375 16.640625 0.375 Z M 16.640625 -2.609375 C 18.753906 -2.609375 20.671875 -3.113281 22.390625 -4.125 C 24.117188 -5.132812 25.484375 -6.5 26.484375 -8.21875 C 27.492188 -9.945312 28 -11.867188 28 -13.984375 C 28 -16.097656 27.492188 -18.015625 26.484375 -19.734375 C 25.484375 -21.460938 24.117188 -22.828125 22.390625 -23.828125 C 20.671875 -24.835938 18.753906 -25.34375 16.640625 -25.34375 C 14.554688 -25.34375 12.648438 -24.835938 10.921875 -23.828125 C 9.203125 -22.828125 7.828125 -21.460938 6.796875 -19.734375 C 5.773438 -18.015625 5.265625 -16.097656 5.265625 -13.984375 C 5.265625 -11.867188 5.773438 -9.945312 6.796875 -8.21875 C 7.828125 -6.5 9.203125 -5.132812 10.921875 -4.125 C 12.648438 -3.113281 14.554688 -2.609375 16.640625 -2.609375 Z M 16.640625 -2.609375 "/></g></g></g></g></g><g clip-path="url(#5fb9c15aba)"><g transform="matrix(1, 0, 0, 1, 0.000000000000000111, -0.000000000000055774)"><g clip-path="url(#f7d86a5b7c)"><g clip-path="url(#a6f2ad9929)"><g transform="matrix(1, 0, 0, 1, 0.000000000000000111, -0.000000000000055774)"><g clip-path="url(#e6b7235362)"><g clip-path="url(#1a2566f2ec)"><g mask="url(#ac84ec83a3)"><g transform="matrix(1, 0, 0, 1, 0.000000000000000111, -0.000000000000055774)"><g clip-path="url(#6847d396b6)"><g clip-path="url(#e1f8e9f85d)"><path fill="url(#3285811536)" d="M 0.789062 0 L 0.789062 394.5 L 895.972656 394.5 L 895.972656 0 Z M 0.789062 0 " fill-rule="nonzero"/></g></g></g></g></g></g></g></g></g></g></g></g></g></g></svg>